<svg width="1080" height="230" viewBox="0 0 1080 205" fill="none" xmlns="http://www.w3.org/2000/svg">
<path d="M434.677 186.102C432.829 186.274 431.982 186.944 433.301 187.195C433.741 187.278 434.604 187.044 435.135 186.655C435.986 186.085 435.982 185.985 434.677 186.102Z" fill="#E65E44"/>
<path d="M-11.4782 -7.88608L-5.09573 157.772C-5.20467 157.776 -5.20596 157.742 -5.3149 157.747L-5.29425 158.282C-5.18532 158.278 -5.18661 158.245 -5.07767 158.24L-5.02348 159.647C-5.13242 159.651 -5.13242 159.651 -5.24136 159.655L-3.83121 196.256C-3.17372 196.331 -3.05446 196.595 -3.80798 196.859C-3.91563 196.897 -4.02328 196.934 -4.23986 196.976C-5.42654 197.324 -5.39042 198.261 -4.08319 198.211C-3.97425 198.207 -3.86531 198.202 -3.75767 198.165C-3.43344 198.085 -3.33225 197.88 -3.55915 197.654C-3.90015 197.298 -3.57979 197.118 -2.27256 197.068C-1.29214 197.03 -0.428393 196.796 -0.436134 196.595C-0.446455 196.327 -0.120938 196.281 0.75958 196.482C1.42094 196.657 2.9512 196.733 4.36479 196.611C5.77837 196.489 7.63802 196.619 8.84664 196.841C10.3859 197.15 10.9306 197.129 10.919 196.828C10.91 196.594 11.5687 196.702 12.3455 197.041C13.7875 197.656 13.7875 197.657 13.2067 196.74C12.631 195.957 12.8437 195.815 14.0485 195.936C14.9251 196.036 15.5878 196.246 15.5955 196.447C15.6032 196.648 16.1505 196.694 17.0181 196.559C17.7755 196.396 18.6496 196.43 18.9841 196.618C19.3174 196.773 19.9736 196.815 20.5144 196.693C21.1628 196.534 21.2847 196.865 20.7697 197.656C20.1573 198.753 20.2689 198.815 21.5554 198.229C22.414 197.861 23.0535 197.467 23.047 197.3C23.0406 197.132 24.9833 196.588 27.2542 196.064C29.9583 195.457 31.3693 195.269 31.2707 195.541C31.0708 196.018 32.4896 196.03 38.3592 195.469C40.3162 195.293 42.1694 195.255 42.5027 195.41C42.95 195.695 45.0159 195.514 47.7238 195.008C48.4812 194.844 49.5745 194.903 49.909 195.091C50.2436 195.279 51.0087 195.317 51.5495 195.196C52.089 195.041 53.0746 195.137 53.8462 195.342C54.9497 195.668 55.1663 195.626 55.1483 195.157C55.1199 194.421 55.9914 194.387 59.5031 194.923C61.9178 195.299 62.3535 195.282 63.8593 194.721C65.0421 194.273 65.6944 194.215 66.1417 194.499C66.4776 194.721 67.7874 194.738 68.9818 194.591C70.9362 194.348 72.9138 194.708 73.1575 195.369C73.2755 195.599 73.6049 195.654 74.4738 195.553C76.7537 195.264 81.7673 195.138 81.7763 195.372C81.7828 195.54 82.7606 195.435 83.8397 195.125C85.4595 194.694 85.8953 194.677 86.3452 195.029C86.5734 195.288 87.4526 195.456 88.2152 195.426C89.0867 195.393 89.2981 195.217 88.8507 194.932C88.4034 194.648 88.7315 194.668 89.8337 194.961C92.0382 195.547 95.091 195.497 95.0691 194.927C95.0588 194.659 95.4868 194.442 96.0315 194.421C96.5761 194.4 97.017 194.517 97.0235 194.684C97.0299 194.852 98.0194 195.048 99.2216 195.103C101.736 195.241 103.892 194.554 102.023 194.19C100.925 193.997 100.921 193.897 102.113 193.683C103.088 193.512 103.859 193.717 104.543 194.462C105.56 195.395 105.781 195.454 107.069 194.901C109.217 194.013 110.31 194.072 109.91 195.026C109.709 195.47 109.176 195.792 108.521 195.784C107.975 195.772 107.543 195.889 107.551 196.09C107.557 196.257 109.085 196.265 110.824 196.098C112.998 195.88 114.09 195.905 114.1 196.173C114.109 196.407 114.769 196.549 115.532 196.52C116.294 196.491 116.941 196.298 116.934 196.097C116.926 195.896 116.375 195.75 115.721 195.775C115.068 195.8 114.072 195.436 113.4 194.992C112.501 194.323 112.603 194.118 113.794 193.904C115.419 193.607 118.734 194.686 118.765 195.49C118.775 195.758 119.549 196.03 120.317 196.134C122.399 196.356 122.615 196.314 122.592 195.711C122.58 195.41 123.12 195.255 124.105 195.351C125.31 195.473 125.524 195.364 125.174 194.774C124.369 193.698 129.799 193.053 130.822 194.12C131.162 194.442 130.729 194.526 129.633 194.401C128.756 194.3 128.322 194.35 128.656 194.539C129.77 195.133 132.921 194.81 132.894 194.107C132.856 193.103 133.937 192.86 135.924 193.454C136.917 193.751 138.455 194.027 139.329 194.06C145.336 194.231 146.641 194.114 148.249 193.381C149.214 192.942 149.97 192.745 150.086 192.908C150.201 193.072 150.322 193.369 150.547 193.561C150.663 193.724 150.787 194.122 150.905 194.352C150.914 194.587 151.462 194.666 152.003 194.545C152.543 194.39 152.748 194.047 152.52 193.787C152.181 193.498 153.146 193.059 154.876 192.657C157.147 192.133 157.692 192.112 157.378 192.46C156.961 192.979 162.352 194.146 163.21 193.744C163.531 193.598 163.198 193.443 162.54 193.367C161.883 193.292 161.328 193.045 161.316 192.744C161.305 192.442 161.625 192.262 162.065 192.346C162.504 192.43 163.481 192.292 164.128 192.099C165.099 191.827 166.085 191.923 167.52 192.371C169.287 192.906 169.943 192.948 171.672 192.513C173.509 192.073 173.729 192.098 173.203 192.621C172.888 192.935 173.007 193.199 173.552 193.178C174.097 193.157 174.417 192.977 174.408 192.743C174.398 192.475 174.944 192.487 175.936 192.751C176.817 192.985 178.353 193.194 179.445 193.219C181.083 193.257 181.189 193.186 180.191 192.754C179.525 192.478 178.321 192.357 177.671 192.483C176.912 192.613 176.365 192.567 176.357 192.366C176.34 191.93 178.517 191.779 183.429 191.858C183.975 191.871 184.972 192.268 185.644 192.712C186.316 193.156 186.647 193.277 186.418 192.984C186.187 192.658 186.61 192.306 187.367 192.143C188.126 192.013 188.563 192.029 188.136 192.281C187.817 192.494 188.26 192.645 189.131 192.611C190.112 192.573 190.54 192.356 190.2 192.033C189.861 191.745 190.391 191.322 191.472 191.079C192.553 190.803 193.086 190.48 192.752 190.325C192.419 190.171 192.63 189.995 193.175 189.974C194.482 189.923 194.506 190.526 193.318 190.84C191.807 191.267 192.262 191.753 194.114 191.681C195.203 191.64 196.196 191.937 196.431 192.364C196.893 193.016 197.112 193.042 198.62 192.547C200.128 192.053 200.237 192.049 199.607 192.677C199.187 193.096 199.42 193.489 200.189 193.627C200.849 193.77 201.411 194.184 201.424 194.519C201.46 195.456 204.286 195.18 204.249 194.242C204.233 193.807 204.654 193.422 205.09 193.405C205.635 193.384 205.972 193.639 205.985 193.974C205.998 194.309 206.773 194.614 207.647 194.648C209.723 194.736 209.812 194.196 207.822 193.534C206.055 192.965 205.921 192.333 207.555 192.27C208.209 192.245 207.871 191.956 206.875 191.592C205.879 191.228 205.323 190.948 205.54 190.939C205.758 190.931 207.078 191.216 208.182 191.542C209.394 191.864 209.843 192.182 209.298 192.203C208.427 192.237 208.433 192.404 209.217 192.911C209.777 193.291 210.006 193.584 209.57 193.601C209.244 193.614 209.471 193.84 210.136 194.116C211.688 194.76 212.666 194.656 213.94 193.735C214.68 193.136 214.558 192.805 213.004 192.094L211.114 191.194L214.708 191.022C218.192 190.854 218.412 190.879 218.785 192.072C219.029 192.734 218.835 193.378 218.403 193.496C217.971 193.613 217.655 193.893 217.664 194.128C217.673 194.362 218.323 194.237 219.07 193.805C219.818 193.408 220.128 192.96 219.904 192.801C219.68 192.642 220.001 192.495 220.873 192.461C221.635 192.432 222.735 192.658 223.182 192.943C224.412 193.7 225.92 193.206 226.631 191.837C227.039 191.117 227.465 190.832 228.02 191.079C228.577 191.393 228.902 191.314 229.321 190.862C230.265 189.886 231.803 190.162 231.187 191.159C230.778 191.879 231.002 192.038 232.528 191.979C233.617 191.937 234.7 191.728 235.018 191.481C235.443 191.196 236.429 191.292 237.865 191.773C239.743 192.372 240.508 192.409 243.001 191.978C244.735 191.676 246.042 191.626 246.377 191.814C247.157 192.254 249.66 192.09 249.642 191.621C249.634 191.42 248.861 191.182 247.768 191.123C246.675 191.065 245.902 190.826 245.892 190.559C245.86 189.721 247.054 189.575 248.5 190.29C249.501 190.788 250.595 190.88 252.224 190.683C253.744 190.491 254.29 190.503 253.974 190.784C253.655 190.997 253.77 191.16 254.315 191.139C254.859 191.118 255.29 190.968 255.285 190.834C255.269 190.432 260.793 189.381 261.782 189.577C262.332 189.69 262.783 190.075 262.799 190.477C262.828 191.247 264.251 191.36 264.987 190.628C265.3 190.28 265.518 190.272 265.531 190.607C265.54 190.841 266.311 191.013 267.073 190.983C267.945 190.95 268.37 190.665 268.247 190.301C268.014 189.907 268.549 189.652 269.856 189.602C270.946 189.56 271.826 189.761 271.838 190.062C271.977 190.828 273.433 191.811 274.413 191.774C274.849 191.757 275.058 191.514 274.94 191.284C274.82 191.02 275.575 190.79 276.774 190.744C279.824 190.626 280.353 190.203 278.47 189.471C276.478 188.743 277.316 187.839 279.519 188.391C280.291 188.596 280.633 188.985 280.424 189.228C279.794 189.856 282.878 190.609 285.38 190.412C286.577 190.332 287.67 190.391 287.894 190.55C288.118 190.709 287.688 190.86 286.925 190.889C286.054 190.923 285.624 191.107 286.069 191.325C286.515 191.576 287.382 191.408 288.45 190.83C290.27 189.922 290.677 189.168 289.165 189.562C288.624 189.683 288.51 189.554 288.825 189.24C289.141 188.926 289.675 188.637 290.002 188.624C291.2 188.578 292.975 189.348 292.999 189.951C293.011 190.286 293.679 190.629 294.446 190.7C295.212 190.771 295.862 190.645 295.852 190.378C295.821 189.574 298.971 189.218 300.305 189.871C301.193 190.272 301.849 190.314 302.276 190.063C302.594 189.816 303.679 189.674 304.552 189.673C305.426 189.707 306.403 189.569 306.722 189.355C307.042 189.175 308.125 188.966 309.106 188.928C310.195 188.886 310.947 188.589 310.934 188.254C310.918 187.818 311.242 187.739 312.015 187.977C312.677 188.187 313.66 188.216 314.528 188.082C315.394 187.914 316.604 188.169 317.713 188.63C319.156 189.278 319.485 189.333 319.575 188.826C319.746 187.612 319.85 187.474 320.504 187.449L322.138 187.386C322.683 187.365 323.239 187.646 323.579 187.968C324.034 188.453 324.034 188.453 323.902 187.855C323.777 187.457 324.091 187.11 324.525 187.059C324.96 187.009 325.82 186.674 326.244 186.356C327.2 185.682 330.356 185.493 331.36 186.058C331.806 186.309 331.482 186.389 330.386 186.264C329.29 186.138 328.857 186.222 329.196 186.511C329.424 186.77 330.627 186.858 331.823 186.745C333.996 186.527 333.998 186.56 332.39 187.293C330.46 188.172 330.379 188.913 332.122 188.846C332.885 188.817 334.094 189.072 335.09 189.436C337.194 190.227 339.484 190.206 338.688 189.364C338.348 189.042 337.789 188.695 337.35 188.611C337.019 188.523 336.346 188.046 335.892 187.594C335.32 186.912 335.425 186.807 336.525 187.033C337.295 187.205 337.072 187.079 336.079 186.782C335.086 186.485 334.421 186.209 334.638 186.2C334.856 186.192 336.486 186.028 338.118 185.899L341.271 185.609L340.679 187.242C339.89 189.419 341.449 190.231 345.359 189.778C347.097 189.577 348.283 189.229 348.272 188.928C348.26 188.627 349.124 188.392 350.104 188.354C351.085 188.317 352.497 188.162 353.035 187.973C354.222 187.626 360.33 187.592 361.98 187.93C362.529 188.043 362.855 187.997 362.738 187.801C362.266 186.88 363.033 186.951 364.489 187.934C366.171 189.11 369.022 189.504 369.862 188.633C370.069 188.357 369.628 188.239 368.757 188.273C367.778 188.344 366.448 187.825 365.103 186.871C362.745 185.151 362.74 185.017 365.475 185.213C367.773 185.393 369.024 186.72 367.407 187.218C366.761 187.444 367.416 187.453 369.046 187.289C370.567 187.13 371.439 187.096 370.789 187.222C370.032 187.385 370.042 187.653 370.829 188.26C371.951 189.055 374.253 189.336 374.225 188.632C374.218 188.431 374.866 188.272 375.629 188.243C376.5 188.209 377.036 187.954 377.024 187.653C377.014 187.385 377.767 187.121 378.639 187.087C379.619 187.05 379.841 187.142 379.082 187.271C378.433 187.397 377.896 187.619 377.902 187.786C377.916 188.155 381.417 188.389 382.276 188.054C382.599 187.941 384.009 187.719 385.314 187.601C386.618 187.484 388.027 187.229 388.348 187.082C388.561 186.94 390.736 186.755 392.806 186.676C394.876 186.596 396.835 186.487 396.83 186.353C396.825 186.219 397.692 186.085 398.672 186.014C399.76 185.938 400.42 186.08 400.32 186.319C400.017 186.968 403.07 186.917 404.789 186.214C406.184 185.624 406.294 185.653 405.996 186.402C405.8 186.98 406.356 187.26 407.667 187.31C409.307 187.381 409.413 187.31 408.306 186.883C407.419 186.515 407.302 186.318 408.057 186.088C408.704 185.895 409.367 186.105 409.601 186.532C410.177 187.314 412.363 187.431 412.99 186.703C413.199 186.46 412.632 185.912 411.634 185.481C409.635 184.585 409.009 182.497 411.005 183.325C411.67 183.601 412.771 183.861 413.535 183.865C414.3 183.902 415.62 184.187 416.506 184.522C418.057 185.133 419.922 185.396 418.919 184.865C418.695 184.706 419.017 184.559 419.888 184.526C420.651 184.496 421.643 184.76 421.874 185.086C422.104 185.413 422.77 185.689 423.205 185.672C423.641 185.655 423.982 186.011 423.89 186.451C423.694 187.028 424.249 187.275 425.886 187.279C427.304 187.292 427.845 187.17 427.4 186.953C427.066 186.764 427.267 186.32 427.801 186.032C428.336 185.743 428.537 185.299 428.201 185.077C427.756 184.86 428.521 184.897 429.732 185.186C432.154 185.73 433.575 185.809 433.34 185.382C433.225 185.219 433.212 184.884 433.309 184.579C433.403 184.173 433.622 184.198 434.62 184.629C435.732 185.156 435.839 185.118 436.025 184.273C436.113 183.733 435.775 183.444 435.235 183.599C434.696 183.754 434.257 183.704 434.248 183.469C434.23 183 435.863 182.904 436.644 183.343C436.978 183.532 438.292 183.649 439.381 183.607C441.887 183.51 445.42 184.615 443.801 185.046C443.261 185.201 442.823 185.151 442.815 184.95C442.807 184.749 442.365 184.599 441.82 184.62C440.404 184.674 440.754 185.264 442.288 185.44C443.055 185.511 444.786 185.142 446.075 184.623C447.365 184.104 448.878 183.744 449.427 183.823C450.856 184.104 450.397 183.518 448.624 182.815C446.964 182.208 447.072 182.17 449.048 182.497C451.792 182.927 452.555 182.898 451.663 182.396C451.327 182.174 452.314 182.304 453.965 182.676L457.046 183.362L458.97 182.349C460.04 181.805 461.117 181.428 461.448 181.516C461.778 181.604 463.298 181.411 465.031 181.076C467.737 180.536 468.282 180.515 469.281 180.946C470.611 181.498 472.137 181.473 471.57 180.891C471.003 180.343 472.6 179.309 473.594 179.639C473.926 179.761 473.719 180.037 473.071 180.23C472.1 180.502 472.661 180.916 474.998 182.1C477.444 183.281 478.324 183.481 478.962 183.054C479.387 182.736 479.48 182.33 479.147 182.175C478.813 182.021 479.134 181.84 480.005 181.807C480.877 181.773 481.433 182.054 481.449 182.456C481.464 182.857 481.804 183.18 482.241 183.196C483.88 183.267 489.006 183.238 493.805 183.187C496.64 183.145 499.258 183.144 499.477 183.169C499.698 183.228 500.569 183.194 501.439 183.127C502.31 183.06 503.296 183.19 503.741 183.408C504.187 183.659 503.972 183.734 503.202 183.563C502.433 183.425 502.216 183.466 502.662 183.718C503.666 184.282 507.039 184.052 507.016 183.449C507.005 183.181 506.448 182.867 505.792 182.826C504.915 182.725 504.914 182.692 505.784 182.625C506.438 182.599 506.974 182.378 506.967 182.177C506.959 181.976 506.521 181.926 505.98 182.047C505.44 182.202 505.002 182.152 504.993 181.917C504.974 181.415 506.919 180.938 507.696 181.277C508.585 181.712 511.641 181.728 511.624 181.293C511.616 181.092 511.174 180.941 510.738 180.958C510.302 180.975 510.073 180.682 510.384 180.268C510.696 179.853 511.12 179.535 511.447 179.522C512.645 179.476 515.68 181.807 515.156 182.364C514.736 182.783 515.065 182.837 516.258 182.657C517.667 182.402 517.668 182.435 516.492 183.051C515.207 183.67 515.315 183.666 517.589 183.209C518.887 182.925 520.176 182.406 520.489 182.025C520.8 181.61 521.77 181.305 522.969 181.258C525.256 181.17 525.37 181.3 523.33 182.15C521.719 182.816 521.721 182.849 523.346 182.552C524.321 182.38 526.056 182.112 527.358 181.928C528.662 181.777 529.415 181.513 529.081 181.325C528.747 181.17 529.286 180.981 530.048 180.952C531.138 180.91 531.363 181.103 531.054 181.584C530.329 182.584 532.303 182.844 534.452 181.99C535.42 181.617 536.287 181.483 536.295 181.684C536.304 181.918 538.376 181.906 542.403 181.65C547.843 181.272 548.609 181.31 549.615 181.942C551.07 182.892 552.265 182.779 552.878 181.682C553.289 181.029 554.042 180.765 555.785 180.698C557.093 180.648 558.188 180.773 558.196 180.974C558.205 181.209 558.751 181.221 559.833 180.978C560.698 180.777 562.001 180.626 562.768 180.698C563.425 180.773 564.511 180.63 565.264 180.367C566.233 180.027 566.455 180.119 566.049 180.906C565.641 181.66 565.864 181.786 566.945 181.509C568.024 181.199 572.477 180.692 580.088 180.03C581.393 179.913 582.698 179.795 583.132 179.745C583.458 179.699 583.555 179.394 583.215 179.071C582.762 178.619 583.09 178.64 584.748 179.213C587.291 180.088 587.619 180.109 586.93 179.196C586.241 178.318 587.767 178.292 589.981 179.112C590.977 179.477 591.966 179.673 592.18 179.564C592.394 179.455 591.837 179.142 590.846 178.911C589.855 178.681 589.296 178.334 589.619 178.221C590.587 177.848 595.075 178.245 595.093 178.714C595.102 178.949 596.419 179.133 597.944 179.074C599.469 179.015 600.554 178.873 600.329 178.68C599.995 178.525 600.207 178.35 600.751 178.329C601.296 178.308 601.745 178.626 601.759 178.994C601.777 179.463 602.219 179.613 603.194 179.442C603.952 179.278 604.595 178.985 604.586 178.751C604.562 178.115 608.036 177.679 609.256 178.202C609.811 178.449 611.231 178.495 612.317 178.353C613.619 178.168 614.604 178.264 615.273 178.641C615.831 178.955 616.6 179.093 617.14 178.938C617.679 178.783 620.182 178.62 622.796 178.519C626.936 178.359 627.369 178.276 626.262 177.849C625.486 177.543 624.939 177.497 624.623 177.778C624.101 178.402 622.895 178.247 622.868 177.544C622.838 176.773 625.017 176.689 626.354 177.409C626.8 177.66 627.241 177.778 627.236 177.644C627.231 177.51 629.306 177.564 631.712 177.739C634.119 177.915 635.867 177.982 635.536 177.86C635.204 177.739 635.842 177.312 637.026 176.897C638.21 176.483 638.529 176.269 637.661 176.403C636.144 176.663 631.903 174.177 633.084 173.696C634.158 173.252 636.595 174.198 636.628 175.068C636.646 175.537 637.096 175.889 637.641 175.868C638.185 175.847 638.613 175.629 638.606 175.428C638.598 175.227 639.031 175.143 639.58 175.223C640.129 175.336 640.556 175.085 640.539 174.649C640.501 173.645 643.228 173.64 644.466 174.632C645.365 175.302 645.268 175.607 644.086 176.089C641.509 177.161 644.042 177.767 647.28 176.871C648.468 176.557 648.461 176.39 647.468 176.093C646.143 175.674 645.889 174.745 646.981 174.77C648.837 174.799 649.157 174.619 648.158 174.188C647.383 173.883 647.373 173.615 648.021 173.456C648.561 173.301 649 173.384 649.011 173.652C649.025 174.021 649.243 174.012 649.773 173.623C650.411 173.196 650.956 173.175 652.714 173.51C654.472 173.811 655.018 173.823 655.33 173.442C655.958 172.747 657.27 172.831 657.08 173.543C656.984 173.882 656.45 174.204 655.798 174.263C655.146 174.321 654.276 174.388 653.623 174.447C653.08 174.502 652.766 174.849 653.107 175.205C653.451 175.627 653.13 175.808 652.255 175.741C650.612 175.569 649.443 176.386 650.768 176.804C652.205 177.285 655.454 176.657 656.18 175.69L656.804 174.895L657.272 175.715C657.624 176.339 658.284 176.481 660.132 176.309C662.633 176.112 664.451 175.137 662.163 175.225C659.548 175.325 658.328 174.802 658.946 173.84C659.253 173.325 659.893 172.931 660.441 173.011C660.99 173.09 661.106 173.287 660.787 173.5C660.467 173.68 660.694 173.906 661.244 174.019C661.794 174.132 662.442 173.973 662.756 173.626C663.172 173.107 663.499 173.094 665.369 173.491C666.579 173.747 667.781 173.801 668.212 173.65C668.641 173.466 668.864 173.592 668.767 173.897C668.481 174.981 669.04 175.329 671.45 175.571C675.502 175.985 676.794 175.533 674.788 174.437C673.896 173.934 673.447 173.616 673.889 173.767C674.33 173.884 675.308 173.779 675.953 173.52C677.029 173.143 677.247 173.134 677.046 173.578C676.948 173.884 677.719 174.055 679.136 174.034C680.445 174.017 682.521 174.105 683.836 174.256C685.919 174.511 686.243 174.431 686.439 173.853C686.534 173.481 687.285 173.15 688.156 173.117C689.027 173.083 689.348 172.903 689.013 172.715C688.68 172.56 688.999 172.346 689.653 172.321C690.524 172.288 690.411 172.191 689.421 171.961C688.65 171.79 688.318 171.668 688.754 171.651C690.606 171.58 694.14 172.685 694.718 173.534C695.641 174.84 698.813 175.054 701.607 173.94C703.111 173.345 703.426 173.031 702.547 172.864C701.778 172.726 702.205 172.475 703.936 172.106C705.234 171.821 706.42 171.44 706.413 171.273C706.389 170.637 709.237 170.929 709.808 171.612C710.151 172.001 710.703 172.181 711.024 172.001C711.983 171.427 713.945 171.385 713.966 171.921C713.978 172.222 714.422 172.44 714.858 172.423C715.403 172.402 715.523 172.699 715.321 173.11C715.014 173.624 715.348 173.813 716.437 173.771C717.745 173.72 717.955 173.511 717.38 172.762C717.033 172.239 716.14 171.703 715.59 171.59C714.821 171.452 714.817 171.352 715.579 171.322C716.233 171.297 717.115 171.531 717.672 171.845C718.565 172.347 718.674 172.343 719.2 171.853C719.62 171.435 720.705 171.259 722.995 171.238C724.739 171.204 726.26 171.045 726.253 170.844C726.245 170.643 726.679 170.593 727.228 170.672C727.778 170.785 728.119 171.141 728.021 171.447C727.925 171.786 728.482 172.066 729.575 172.124C730.886 172.175 731.209 172.062 730.756 171.643C730.415 171.287 730.625 171.078 731.606 171.04C732.695 170.998 732.798 170.827 732.015 170.32C731.456 169.973 730.993 169.286 731.085 168.847L731.163 168.039L732.065 168.809C732.968 169.579 735.051 169.834 734.585 169.081C734.469 168.884 734.894 168.599 735.546 168.541C736.197 168.449 736.416 168.474 735.985 168.591C734.795 168.872 735.84 170.508 737.259 170.52C739.113 170.516 741.069 170.307 741.712 170.014C742.143 169.863 741.483 169.721 740.392 169.729C737.775 169.763 736.89 169.428 738.511 169.03C740.131 168.599 744.079 169.151 744.652 169.867C744.996 170.289 744.348 170.449 742.387 170.524C738.901 170.658 738.042 171.027 739.921 171.659C741.468 172.169 745.383 171.851 745.358 171.181C745.351 171.014 746.004 170.955 746.661 171.03C747.427 171.101 747.767 171.424 747.452 171.738C747.139 172.118 747.471 172.24 748.775 172.089C749.86 171.947 750.502 171.62 750.484 171.151C750.347 170.419 751.431 170.243 753.629 170.661C755.167 170.937 756.679 170.544 756.653 169.874C756.628 169.204 758.481 169.166 759.16 169.811C759.5 170.133 760.377 170.233 761.461 170.058C762.328 169.924 763.42 169.949 763.755 170.137C764.089 170.325 764.746 170.367 765.286 170.246C765.718 170.128 766.922 170.216 767.802 170.417C769.125 170.768 769.233 170.731 768.77 170.044C768.192 169.195 770.468 168.805 771.371 169.609C772.049 170.22 776.19 170.094 777.474 169.441C778.009 169.152 779.198 168.871 779.852 168.846C780.614 168.817 781.152 168.628 781.143 168.394C781.134 168.159 781.785 168.067 782.443 168.142C783.209 168.214 784.832 167.849 786.012 167.334C788.694 166.158 790.109 166.07 791.129 167.07C791.814 167.849 791.923 167.844 792.975 166.831C793.922 165.923 794.137 165.847 795.246 166.308C795.911 166.584 796.248 166.839 795.812 166.856C795.377 166.873 795.603 167.099 796.267 167.342C797.376 167.802 800.965 167.496 800.943 166.927C800.935 166.726 800.605 166.671 800.066 166.826C799.634 166.944 799.082 166.764 798.739 166.374C798.397 165.985 798.603 165.675 799.148 165.654C800.673 165.596 801.433 165.499 803.053 165.068C804.566 164.708 804.677 164.737 803.721 165.411C803.085 165.905 803.098 166.24 803.758 166.382C805.296 166.658 804.881 167.211 803.029 167.282C801.504 167.341 801.505 167.374 803.154 167.68C805.571 168.123 807.83 167.298 806.488 166.445C805.816 166.001 805.8 165.566 806.543 165.034C807.178 164.54 807.278 164.302 806.516 164.331C805.971 164.352 805.529 164.201 805.52 163.967C805.512 163.766 805.944 163.649 806.384 163.732C806.933 163.845 807.367 163.762 807.577 163.552C807.787 163.343 808.439 163.284 809.209 163.456C810.309 163.682 810.314 163.816 809.025 164.335C807.523 164.996 807.786 166.16 809.406 165.729C809.838 165.611 810.17 165.733 810.18 166.001C810.191 166.269 810.642 166.654 811.304 166.863C812.741 167.344 815.877 166.62 815.846 165.816C815.827 165.314 816.045 165.305 817.81 165.807C819.466 166.314 820.01 166.293 820.868 165.891C821.832 165.451 821.722 165.422 820.421 165.64C818.471 165.983 817.028 165.334 818.646 164.87C819.295 164.71 819.501 164.401 819.165 164.179C818.829 163.957 819.154 163.878 820.029 163.944C820.906 164.045 822.419 163.685 823.813 163.061C825.744 162.215 826.394 162.089 827.933 162.399C829.802 162.763 829.838 163.701 827.986 163.772C827.551 163.789 827.23 163.969 827.238 164.17C827.246 164.371 828.559 164.488 830.084 164.429C831.61 164.37 832.923 164.487 832.932 164.722C832.959 165.425 836.142 165.906 837.871 165.47C839.384 165.11 839.38 165.01 838.054 164.558C837.279 164.286 836.401 164.152 836.08 164.299C835.437 164.592 830.899 162.922 830.988 162.382C830.981 162.215 831.309 162.235 831.536 162.461C831.763 162.687 832.424 162.863 832.969 162.842C834.167 162.796 834.021 161.829 832.816 161.708C832.269 161.662 832.259 161.394 832.683 161.076C833.321 160.649 833.755 160.599 834.969 160.954C836.182 161.276 836.297 161.44 835.433 161.674C834.677 161.871 835.342 162.147 837.317 162.44C838.963 162.678 840.93 162.77 841.47 162.615C842.226 162.418 842.123 162.59 841.375 162.988C840.411 163.461 840.418 163.628 841.289 163.595C841.943 163.57 843.264 163.888 844.263 164.319C845.705 164.934 846.69 165.03 849.191 164.799C850.93 164.632 853.207 164.276 854.504 163.958C856.234 163.556 857.433 163.509 859.623 163.727C861.813 163.944 862.575 163.881 862.888 163.534C863.097 163.291 863.747 163.166 864.187 163.249C865.395 163.471 868.089 162.596 867.311 162.223C866.978 162.068 867.62 161.742 868.7 161.466C870.105 161.11 870.542 161.126 870.663 161.457C870.694 162.261 873.779 163.047 875.401 162.649C876.266 162.448 878.114 162.277 879.532 162.289C882.915 162.293 883.655 161.694 880.695 161.305C879.378 161.121 878.276 160.828 878.268 160.627C878.261 160.426 878.915 160.435 879.688 160.673C880.901 160.995 881.445 160.974 882.521 160.564C883.705 160.15 884.033 160.171 884.487 160.623C885.276 161.296 886.803 161.271 886.776 160.568C886.764 160.267 887.3 160.011 887.952 159.952C888.606 159.927 888.27 159.705 887.278 159.442C886.287 159.212 885.082 159.09 884.759 159.204C884.327 159.321 883.779 159.241 883.334 159.024C882.219 158.396 887.8 158.852 890.119 159.567C892.327 160.253 897.136 160.471 897.114 159.901C897.106 159.7 897.431 159.621 897.981 159.734C898.529 159.813 898.742 159.671 898.621 159.374C898.269 158.717 896.942 158.265 896.964 158.834C896.992 159.571 893.605 159.433 890.734 158.537C889.078 158.031 888.072 157.399 888.277 157.056C888.788 156.164 890.316 156.172 890.349 157.043C890.363 157.411 890.816 157.83 891.475 157.939C892.244 158.077 892.349 157.972 891.791 157.658C891.345 157.407 892.001 157.449 893.105 157.775C895.2 158.365 895.2 158.365 896.914 157.528C898.949 156.544 904.707 155.92 903.867 156.791C903.551 157.071 902.577 157.276 901.593 157.214C900.608 157.151 899.631 157.256 899.312 157.469C898.991 157.649 899.215 157.808 899.76 157.787C900.305 157.766 900.746 157.883 900.642 158.022C900.345 158.804 901.009 159.047 902.854 158.808C904.591 158.574 904.813 158.666 904.403 159.352C903.783 160.248 905.108 160.666 905.948 159.829C906.369 159.411 906.912 159.356 908.338 159.569C910.863 159.975 911.516 159.917 910.835 159.239C910.272 158.791 910.489 158.749 911.591 159.042C912.693 159.335 913.015 159.188 913.417 158.301C913.722 157.719 914.465 157.187 915.119 157.162C915.99 157.128 915.994 157.229 915.136 157.597C913.634 158.259 913.866 158.619 915.718 158.547C916.589 158.514 917.904 158.664 918.567 158.874C919.451 159.175 919.669 159.166 919.656 158.832C919.647 158.597 919.204 158.413 918.55 158.438C917.896 158.463 918.1 158.087 919.06 157.513C919.912 156.977 920.326 156.391 919.993 156.236C919.1 155.734 921.066 155.793 922.613 156.303C923.386 156.542 924.263 156.642 924.586 156.529C924.909 156.416 925.242 156.571 925.146 156.91C925.16 157.278 925.601 157.395 926.25 157.236C927.006 157.039 927.227 157.131 926.807 157.55C926.39 158.036 926.722 158.157 928.464 158.09C929.772 158.039 930.96 157.725 931.272 157.344C931.798 156.821 931.687 156.792 930.72 157.165C928.787 157.977 928.017 157.805 928.3 156.654C928.495 156.043 928.914 155.591 929.46 155.603C930.006 155.616 930.229 155.741 930.125 155.88C930.02 155.984 931.437 155.963 933.067 155.8C935.895 155.557 936.334 155.64 937.241 156.511C938.257 157.411 938.258 157.444 938.338 156.67C938.409 155.694 940.766 154.564 941.768 155.096C942.103 155.284 942.978 155.351 943.628 155.225C944.603 155.053 944.829 155.246 944.64 156.025C944.349 156.941 944.57 157.033 946.854 156.845C948.268 156.723 949.454 156.376 949.658 155.999C949.859 155.555 949.527 155.434 948.444 155.643C947.361 155.853 946.919 155.702 946.9 155.2C946.87 154.429 947.634 154.434 951.161 155.371C953.034 155.835 953.034 155.835 951.483 155.224C949.044 154.212 950.324 153.458 953.083 154.291C954.407 154.676 955.394 154.805 955.386 154.604C955.377 154.37 955.807 154.186 956.351 154.165C956.896 154.144 957.342 154.395 957.354 154.696C957.372 155.165 957.805 155.081 959.631 154.34C960.92 153.821 961.771 153.252 961.765 153.084C961.757 152.883 962.513 152.687 963.6 152.578C964.687 152.469 965.016 152.523 964.366 152.649C962.742 152.98 962.873 153.545 964.616 153.477C965.488 153.444 966.041 153.657 966.052 153.925C966.067 154.327 967.377 154.344 972.057 154.063C980.763 153.493 984.235 152.99 984.533 152.241C984.629 151.902 985.05 151.483 985.371 151.336C985.693 151.19 985.916 151.315 985.819 151.621C985.424 152.709 986.204 153.115 986.711 152.123C987.322 150.993 989.585 150.269 989.622 151.24C989.647 151.876 991.177 151.951 992.027 151.348C992.454 151.097 993.111 151.172 993.998 151.541C995.218 152.064 995.217 152.03 994.414 151.022C993.614 150.08 993.718 149.942 995.142 150.088C996.019 150.188 997.12 150.448 997.785 150.724C998.673 151.126 999.218 151.105 1000.95 150.669C1002.46 150.309 1003.33 150.276 1004.1 150.481C1005.76 151.054 1006.84 150.811 1005.73 150.116C1004.83 149.547 1005.16 149.467 1007.77 149.367C1009.51 149.3 1011.59 149.387 1012.47 149.521C1013.67 149.709 1014.33 149.617 1015.07 149.052C1015.6 148.663 1015.69 148.223 1015.25 148.106C1014.92 147.985 1015.24 147.939 1016.12 148.005C1018.31 148.223 1019.69 147.398 1018.68 146.465C1017.66 145.531 1016.46 145.511 1017.15 146.457C1017.49 146.846 1017.29 147.256 1016.75 147.378C1016.21 147.499 1015.87 147.344 1015.86 146.942C1015.84 146.574 1015.5 146.151 1014.95 145.971C1014.4 145.791 1014.38 145.456 1014.91 145.101C1015.55 144.674 1015.77 144.632 1015.78 145C1015.79 145.268 1016.23 145.352 1016.77 145.23C1017.32 145.109 1017.75 145.159 1017.76 145.36C1017.77 145.594 1018.32 145.607 1018.86 145.452C1019.5 145.293 1019.72 145.318 1019.4 145.531C1019.08 145.711 1019.21 146.109 1019.65 146.36C1020.32 146.737 1020.76 146.72 1021.84 146.343C1023.34 145.816 1024.44 146.041 1024.48 146.979C1024.51 147.716 1027.89 147.787 1028.52 147.058C1028.73 146.782 1029.17 146.866 1029.51 147.221C1029.85 147.544 1029.74 147.749 1029.31 147.665C1028.76 147.586 1028.11 147.678 1027.79 147.891C1026.62 148.641 1030.43 148.628 1031.71 147.874C1032.67 147.334 1034.08 147.112 1037.68 147.007C1041.6 146.889 1042.36 146.76 1042.77 146.14C1043.09 145.726 1043.73 145.499 1044.28 145.612C1046.04 145.947 1045.36 145.303 1043.26 144.545L1041.27 143.851L1044.87 143.779C1048.25 143.716 1051.87 144.415 1051.9 145.151C1051.91 145.352 1052.35 145.503 1052.9 145.482C1053.44 145.461 1053.86 145.143 1053.85 144.774C1053.84 144.406 1054.47 143.979 1055.23 143.849C1055.99 143.719 1056.65 143.694 1056.54 143.832C1056.15 144.988 1059.11 145.41 1060.05 144.334C1060.37 144.02 1061.12 143.857 1062 143.957C1062.77 144.028 1064.51 143.861 1065.69 143.547C1067.64 143.069 1068.29 143.044 1070.05 143.379C1071.92 143.743 1072.03 143.705 1070.81 143.182C1069.59 142.692 1069.69 142.554 1070.99 142.202C1072.07 141.96 1072.38 141.579 1072.04 141.156C1071.47 140.507 1072.87 140.151 1073.88 140.716C1074.21 140.904 1075.19 140.934 1076.06 140.8C1077.15 140.657 1078.03 140.825 1078.7 141.335C1079.83 142.197 1084.63 142.381 1084.82 141.602L1084.78 140.598C1083.69 140.673 1082.92 140.334 1081.8 139.573C1079.78 138.208 1080.93 137.024 1083.27 138.074C1084.27 138.538 1084.7 138.589 1084.69 138.22C1084.69 138.187 1084.69 138.153 1084.69 138.12L1084.62 136.445L1084.51 136.45C1083.97 136.471 1084.07 136.266 1084.6 135.943L1084.48 132.662C1083.93 132.549 1083.48 132.197 1083.57 131.858C1083.55 131.322 1083.66 131.318 1084.44 131.724L1077.75 -41.9371L1078.73 -41.9749L1078.43 -49.8777L-11.4782 -7.88608ZM47.3351 193.413C47.1172 193.421 46.4546 193.212 45.7894 192.936C45.1241 192.66 45.0062 192.429 45.5508 192.408C46.0955 192.387 46.7582 192.597 47.0966 192.885C47.435 193.174 47.553 193.404 47.3351 193.413ZM267.979 189.003C267.337 189.33 266.692 189.589 266.474 189.598C266.256 189.606 266.356 189.368 266.671 189.054C266.987 188.74 267.631 188.48 268.176 188.459C268.721 188.438 268.73 188.673 267.979 189.003ZM285.36 189.91C284.163 189.989 283.067 189.864 282.624 189.68C281.955 189.303 282.826 189.27 285.456 189.571C287.32 189.801 287.32 189.801 285.36 189.91ZM295.887 188.465C295.568 188.678 295.139 188.862 294.921 188.871C294.703 188.879 294.261 188.728 293.926 188.54C293.592 188.352 294.021 188.168 294.892 188.134C295.765 188.134 296.207 188.285 295.887 188.465ZM304.398 188.506C303.636 188.535 302.987 188.694 302.995 188.895C303.014 189.397 301.378 189.393 300.812 188.879C300.246 188.33 302.941 187.489 304.584 187.66C306.227 187.832 306.141 188.438 304.398 188.506ZM345.971 188.681C345.227 189.18 344.569 189.104 344.546 188.501C344.534 188.2 344.965 188.049 345.513 188.129C346.063 188.242 346.291 188.501 345.971 188.681ZM350.281 187.274C349.731 187.161 349.286 186.944 349.278 186.743C349.271 186.542 349.704 186.458 350.254 186.571C350.804 186.684 351.248 186.902 351.256 187.103C351.264 187.304 350.829 187.354 350.281 187.274ZM352.877 186.705C351.657 186.182 351.766 186.178 353.309 186.588C354.191 186.822 354.964 187.06 354.968 187.161C354.978 187.429 354.208 187.257 352.877 186.705ZM355.266 186.412C354.935 186.324 354.922 185.989 355.24 185.742C355.557 185.461 355.778 185.553 355.794 185.955C355.808 186.324 355.598 186.533 355.266 186.412ZM353.748 183.821C352.638 183.327 352.637 183.293 354.18 183.704C355.062 183.938 355.835 184.176 355.838 184.277C355.74 184.549 354.969 184.377 353.748 183.821ZM361.918 186.323C361.492 186.608 361.056 186.625 360.608 186.306C360.05 185.993 359.618 186.11 358.769 186.713C357.496 187.667 357.171 187.713 357.14 186.91C357.127 186.575 357.975 185.938 358.833 185.536C360.334 184.875 360.551 184.833 360.572 185.369C360.585 185.704 361.031 185.955 361.575 185.934C362.12 185.913 362.235 186.076 361.918 186.323ZM381.347 186.581C380.802 186.602 380.357 186.384 380.346 186.083C380.334 185.781 380.543 185.538 380.761 185.53C380.979 185.522 381.424 185.739 381.762 186.028C382.102 186.35 381.892 186.56 381.347 186.581ZM397.787 185.712C396.929 186.081 396.929 186.081 393.949 185.19C392.623 184.771 391.845 184.399 392.39 184.378C392.935 184.357 393.704 184.495 394.038 184.683C394.373 184.871 395.469 184.997 396.449 184.959C398.301 184.888 398.969 185.231 397.787 185.712ZM423.343 183.588C422.49 184.09 421.941 184.01 421.918 183.408C421.906 183.106 422.337 182.956 422.886 183.035C423.544 183.144 423.662 183.374 423.343 183.588ZM426.46 182.361C427.004 182.34 427.667 182.549 428.006 182.838C428.344 183.127 428.462 183.357 428.244 183.365C428.026 183.374 427.472 183.16 426.698 182.888C426.033 182.612 425.915 182.382 426.46 182.361ZM428.285 184.437C427.523 184.466 426.758 184.429 426.754 184.328C426.74 183.96 428.585 183.721 429.143 184.035C429.477 184.223 429.048 184.407 428.285 184.437ZM539.072 177.318C539.065 177.117 539.276 176.941 539.494 176.933C539.712 176.924 540.263 177.071 540.597 177.259C540.931 177.414 540.721 177.623 540.176 177.644C539.521 177.636 539.079 177.485 539.072 177.318ZM541.198 181.529C540.654 181.55 539.994 181.407 539.659 181.219C539.324 181.031 539.754 180.846 540.516 180.817C541.388 180.783 542.048 180.926 542.056 181.127C542.063 181.328 541.743 181.508 541.198 181.529ZM561.895 177.881C561.351 177.902 560.909 177.751 560.901 177.55C560.893 177.349 561.104 177.173 561.322 177.165C561.54 177.156 561.982 177.307 562.317 177.495C562.543 177.688 562.44 177.86 561.895 177.881ZM565.176 178.089C565.495 177.876 565.262 177.483 564.597 177.206C563.932 176.93 563.923 176.696 564.467 176.675C565.666 176.629 566.795 177.625 566.049 178.089C565.73 178.303 565.3 178.454 565.082 178.462C564.755 178.475 564.857 178.303 565.176 178.089ZM566.211 179.458C565.993 179.467 565.551 179.316 565.216 179.128C564.882 178.939 565.093 178.763 565.638 178.742C566.183 178.721 566.625 178.872 566.633 179.073C566.642 179.307 566.429 179.45 566.211 179.458ZM573.742 179.537C572.783 180.144 571.579 180.023 570.894 179.244C570.552 178.855 570.535 178.42 570.749 178.311C571.608 177.942 574.38 179.11 573.742 179.537ZM593.377 173.817C592.506 173.851 592.171 173.662 592.594 173.311C592.909 172.997 593.227 172.75 593.336 172.745C593.445 172.741 593.89 172.959 594.119 173.252C594.459 173.574 594.14 173.788 593.377 173.817ZM594.444 176.023C593.639 174.947 595.347 173.976 596.687 174.763C597.133 175.014 597.257 175.411 597.046 175.587C596.725 175.767 596.178 175.721 595.732 175.47C595.063 175.094 594.954 175.098 594.968 175.466C594.978 175.734 595.753 176.006 596.846 176.064C599.251 176.207 599.384 176.805 596.987 176.897C595.678 176.914 594.794 176.613 594.444 176.023ZM598.356 178.454C597.594 178.484 597.262 178.362 597.473 178.187C597.793 178.007 598.333 177.852 598.769 177.835C599.313 177.814 599.644 177.902 599.652 178.103C599.658 178.27 599.01 178.429 598.356 178.454ZM598.217 174.838C597.877 174.516 597.981 174.377 598.529 174.457C599.079 174.57 599.415 174.792 599.423 174.993C599.552 175.524 598.894 175.415 598.217 174.838ZM606.151 176.88C605.388 176.909 603.854 176.733 602.862 176.47C601.54 176.152 601.425 175.989 602.405 175.951C603.168 175.921 604.702 176.097 605.694 176.361C607.126 176.708 607.24 176.838 606.151 176.88ZM617.642 174.995C617.098 175.016 616.548 174.903 616.212 174.681C615.877 174.493 616.198 174.313 617.069 174.279C617.832 174.25 618.492 174.392 618.5 174.593C618.4 174.832 618.078 174.978 617.642 174.995ZM622.929 173.45C621.195 173.751 620.746 173.433 622.149 173.044C622.905 172.847 623.001 172.508 622.665 172.286C622.109 172.006 622.216 171.935 622.985 172.073C624.414 172.353 624.446 173.19 622.929 173.45ZM625.706 174.751C624.935 174.546 624.06 174.513 623.631 174.697C623.202 174.881 623.198 174.781 623.514 174.5C624.045 174.111 624.479 174.061 625.582 174.354C626.353 174.559 626.908 174.806 626.912 174.906C627.025 175.002 626.478 174.956 625.706 174.751ZM630.077 172.101C630.399 171.955 631.166 172.059 631.612 172.31C633.061 173.093 632.747 173.44 631.09 172.901C630.207 172.633 629.755 172.248 630.077 172.101ZM632.434 176.638C631.662 176.433 630.788 176.4 630.466 176.547C629.608 176.915 629.8 176.237 630.651 175.667C631.183 175.312 631.732 175.425 632.632 176.128C633.642 176.86 633.645 176.927 632.434 176.638ZM668.938 172.683C668.513 172.968 668.077 172.985 667.304 172.746C666.752 172.566 666.523 172.307 666.737 172.198C667.705 171.825 669.576 172.256 668.938 172.683ZM682.553 169.275C682.008 169.296 681.566 169.145 681.558 168.944C681.551 168.743 681.98 168.559 682.525 168.538C683.069 168.517 683.512 168.668 683.519 168.868C683.528 169.103 683.098 169.254 682.553 169.275ZM726.937 165.955C727.478 165.833 727.916 165.884 727.924 166.084C727.932 166.285 727.504 166.503 726.959 166.524C726.414 166.545 725.976 166.495 725.972 166.394C725.968 166.294 726.397 166.11 726.937 165.955ZM731.357 170.245C730.505 170.781 728.976 170.739 728.954 170.17C728.942 169.868 728.498 169.651 727.953 169.672C727.408 169.693 726.962 169.442 726.951 169.14C726.935 168.738 726.387 168.659 725.086 168.877C722.808 169.233 722.562 168.504 724.838 168.115C726.681 167.809 732.316 169.638 731.357 170.245ZM741.248 166.443C739.964 167.096 737.247 167.369 736.03 166.946C735.589 166.829 734.822 166.724 734.386 166.741C733.841 166.762 733.064 166.423 732.503 166.009C731.94 165.561 732.036 165.222 732.581 165.201C733.126 165.18 733.458 165.301 733.465 165.502C733.473 165.703 734.128 165.711 734.887 165.581C735.862 165.41 736.303 165.527 736.318 165.929C736.338 166.431 736.885 166.477 739.383 166.18C742.207 165.87 742.427 165.895 741.248 166.443ZM768.504 163.146C769.049 163.125 769.273 163.284 768.954 163.498C768.635 163.711 768.206 163.895 767.879 163.908C767.661 163.916 767.437 163.757 767.429 163.556C767.53 163.351 767.959 163.167 768.504 163.146ZM763.962 164.193C764.284 164.046 765.046 164.017 765.595 164.097C766.914 164.348 766.951 165.319 765.644 165.369C765.099 165.39 764.876 165.264 765.195 165.051C765.516 164.871 765.18 164.649 764.522 164.574C763.866 164.532 763.641 164.339 763.962 164.193ZM768.165 168.491C766.868 168.81 765.9 169.182 765.907 169.35C765.913 169.517 765.699 169.626 765.372 169.639C765.045 169.651 765.144 169.379 765.35 169.069C766.188 168.165 764.2 167.537 761.708 167.969C760.516 168.182 759.211 168.3 758.554 168.224C758.006 168.178 757.253 168.442 756.94 168.823C756.523 169.309 755.766 169.506 754.454 169.422C753.361 169.364 752.697 169.121 753.013 168.84C753.222 168.598 752.993 168.305 752.337 168.263C751.679 168.188 751.455 168.028 751.778 167.915C752.099 167.769 753.198 167.961 754.301 168.288C756.289 168.915 756.289 168.915 756.916 168.187C757.227 167.773 757.872 167.513 758.311 167.597C758.751 167.68 759.401 167.555 759.721 167.375C760.04 167.161 761.017 167.023 761.675 167.132C763.427 167.299 765.917 166.801 765.248 166.424C765.024 166.265 765.237 166.122 765.781 166.101C766.653 166.068 767.216 166.516 767.022 167.16C767.027 167.294 767.791 167.298 768.875 167.123C771.48 166.754 770.975 167.813 768.165 168.491ZM775.698 168.637C775.384 168.985 774.847 169.206 774.516 169.119C774.186 169.031 774.501 168.717 775.145 168.457C776.113 168.085 776.223 168.114 775.698 168.637ZM776.502 166.862C775.536 167.268 775.535 167.235 775.512 166.632C775.5 166.331 775.818 166.084 776.362 166.063C777.234 166.029 777.362 166.527 776.502 166.862ZM781.958 166.887C780.751 166.699 779.977 166.427 780.3 166.313C780.621 166.167 781.609 166.33 782.495 166.665C784.152 167.205 784.043 167.209 781.958 166.887ZM786.478 165.271C785.933 165.292 785.491 165.141 785.483 164.94C785.476 164.739 785.905 164.555 786.449 164.534C786.994 164.513 787.436 164.664 787.444 164.864C787.453 165.099 787.023 165.25 786.478 165.271ZM795.183 161.85C794.956 161.624 794.941 161.222 795.149 160.979C795.358 160.736 795.693 160.925 795.711 161.394C795.729 161.862 795.519 162.072 795.183 161.85ZM798.229 164.449C797.684 164.47 798.004 164.29 798.761 164.093C799.947 163.746 799.942 163.612 798.4 163.235C796.307 162.712 796.727 162.293 799.137 162.536C799.903 162.607 800.458 162.854 800.138 163.034C799.818 163.214 800.042 163.373 800.587 163.352C801.131 163.331 801.561 163.147 801.553 162.946C801.544 162.711 801.978 162.661 802.637 162.77C803.735 162.962 800.19 164.373 798.229 164.449ZM808.747 162.769C807.979 162.665 807.535 162.481 807.745 162.271C808.49 161.773 809.801 161.823 810.368 162.372C811.047 163.016 810.938 163.02 808.747 162.769ZM812.909 163.213C812.365 163.234 811.926 163.183 811.922 163.083C811.919 162.982 812.348 162.798 812.887 162.643C813.428 162.522 813.867 162.572 813.874 162.773C813.883 163.007 813.454 163.192 812.909 163.213ZM813.291 161.789C811.112 161.873 811.001 161.811 811.962 161.27C812.924 160.764 812.918 160.596 811.819 160.404C811.05 160.266 810.823 160.04 811.145 159.893C811.788 159.6 815.654 160.826 815.675 161.362C815.681 161.53 814.598 161.739 813.291 161.789ZM840.005 161.397C839.892 161.301 839.115 160.962 838.337 160.59C837.005 160.004 837.113 159.966 838.546 160.347C839.428 160.581 840.206 160.954 840.214 161.155C840.331 161.385 840.226 161.489 840.005 161.397ZM843.939 158.731C842.63 158.747 842.407 158.622 843.155 158.224C844.332 157.609 844.441 157.605 845.228 158.211C845.567 158.534 845.138 158.718 843.939 158.731ZM861.971 159.545C862.516 159.524 862.958 159.675 862.966 159.876C862.973 160.076 862.762 160.252 862.544 160.261C862.326 160.269 861.884 160.118 861.549 159.93C861.214 159.708 861.426 159.566 861.971 159.545ZM864.607 162.831C863.737 162.898 862.654 163.107 862.44 163.216C861.582 163.618 861.033 163.505 861.45 163.019C861.766 162.705 861.105 162.563 859.907 162.609C858.491 162.664 857.828 162.455 857.59 161.927C857.464 161.496 857.777 161.115 858.321 161.094C858.866 161.073 859.308 161.224 859.317 161.458C859.326 161.693 860.193 161.525 861.268 161.115C862.772 160.52 863.099 160.508 862.571 160.964C862.151 161.383 862.705 161.596 864.563 161.692C867.188 161.859 867.215 162.562 864.607 162.831ZM871.816 157.388C871.495 157.568 870.734 157.631 869.968 157.56C869.201 157.489 868.757 157.271 869.077 157.091C869.397 156.911 870.157 156.815 870.925 156.92C871.691 156.991 872.136 157.208 871.816 157.388ZM876.174 160.071C875.629 160.092 875.187 159.941 875.179 159.74C875.172 159.539 875.601 159.355 876.146 159.334C876.69 159.313 877.132 159.464 877.14 159.665C877.148 159.866 876.719 160.05 876.174 160.071ZM881.498 159.497C881.28 159.505 880.838 159.355 880.503 159.166C880.168 158.978 880.38 158.802 880.925 158.781C881.469 158.76 881.911 158.911 881.919 159.112C881.818 159.317 881.716 159.488 881.498 159.497ZM910.215 157.317C909.671 157.338 908.786 157.037 908.226 156.656C906.66 155.643 907.744 155.467 909.527 156.438C910.418 156.907 910.76 157.296 910.215 157.317ZM915.854 153.579C913.577 153.968 913.162 154.521 914.811 154.826C915.469 154.935 915.48 155.203 914.73 155.567C913.233 156.363 912.467 156.292 911.12 155.304C910.447 154.827 910.207 154.266 910.527 154.086C911.378 153.516 908.101 153.408 906.376 153.944C904.868 154.438 904.868 154.438 906.37 153.776C907.658 153.224 907.647 152.956 906.755 152.454C905.305 151.638 907.89 150.767 909.557 151.541C910.112 151.788 910.879 151.892 911.201 151.746C911.523 151.599 911.852 151.654 911.861 151.888C911.87 152.123 912.64 152.294 913.512 152.26C914.819 152.21 914.93 152.273 913.743 152.587C912.663 152.897 912.994 152.985 915.072 153.106C917.803 153.202 917.804 153.235 915.854 153.579ZM929.289 151.183C928.843 150.932 929.06 150.89 929.829 151.028C930.708 151.196 930.923 151.12 930.584 150.798C930.356 150.538 929.258 150.379 928.279 150.451C927.3 150.522 926.972 150.501 927.622 150.375C928.272 150.25 928.479 149.973 928.143 149.752C927.807 149.53 928.797 149.726 930.449 150.132C932.102 150.572 933.539 151.053 933.544 151.187C933.56 151.589 929.96 151.593 929.289 151.183ZM932.26 154.657C929.863 154.749 929.643 154.691 931.155 154.297C932.452 153.979 933.214 153.95 933.989 154.222C934.763 154.494 934.331 154.611 932.26 154.657ZM935.397 153.966C934.734 153.757 934.505 153.464 934.719 153.355C935.042 153.242 935.594 153.422 935.934 153.744C936.498 154.225 936.39 154.263 935.397 153.966ZM939.404 150.357C940.393 150.554 939.546 151.224 938.239 151.274C937.694 151.295 937.362 151.174 937.356 151.006C937.338 150.538 938.415 150.194 939.404 150.357ZM939.689 154.941C939.374 155.255 938.838 155.51 938.294 155.531C937.858 155.548 937.413 155.33 937.402 155.029C937.39 154.728 938.035 154.468 938.797 154.439C939.669 154.405 940.003 154.593 939.689 154.941ZM939.723 152.994C939.404 153.208 938.975 153.392 938.757 153.401C938.539 153.409 938.315 153.25 938.307 153.049C938.3 152.848 938.729 152.664 939.273 152.643C939.927 152.618 940.042 152.781 939.723 152.994ZM949.478 154.161C948.601 154.061 948.049 153.881 948.263 153.772C948.586 153.659 949.354 153.764 950.016 153.973C951.01 154.27 950.902 154.308 949.478 154.161ZM955.86 152.742C955.116 153.24 954.786 153.185 954.763 152.583C954.753 152.315 955.182 152.131 955.513 152.218C956.061 152.298 956.179 152.528 955.86 152.742ZM977.025 149.914C977.566 149.793 978.004 149.843 978.012 150.044C978.02 150.245 977.592 150.462 977.047 150.483C976.502 150.504 976.064 150.454 976.06 150.354C976.165 150.249 976.486 150.069 977.025 149.914ZM970.747 145.528C972.405 146.101 972.539 146.733 970.905 146.796C970.251 146.821 969.691 146.441 969.563 145.942C969.421 145.11 969.529 145.072 970.747 145.528ZM966.4 148.814C967.159 148.684 967.26 148.479 966.595 148.203C965.82 147.898 966.028 147.655 967.105 147.278C968.397 146.826 968.506 146.822 968.304 147.265C968.206 147.537 968.54 147.726 969.191 147.634C970.713 147.474 970.72 147.675 969.336 148.567C968.698 148.994 967.617 149.237 966.74 149.137C965.755 149.04 965.642 148.944 966.4 148.814ZM969.594 152.414C968.613 152.452 967.955 152.343 968.276 152.196C968.7 151.878 966.734 151.82 963.36 152.017C961.727 152.113 961.834 152.042 963.778 151.531C965.074 151.213 966.484 150.991 966.815 151.079C967.255 151.162 967.581 151.15 967.576 151.016C967.572 150.915 966.364 150.694 965.049 150.543C961.982 150.225 962.517 149.97 965.903 150.074C967.76 150.137 968.533 150.375 968.551 150.844C968.566 151.213 969.235 151.589 970.002 151.694C972.083 151.882 971.773 152.33 969.594 152.414ZM971.026 149.944C971.346 149.764 971.013 149.609 970.468 149.63C969.924 149.651 969.37 149.438 969.358 149.136C969.322 148.199 972.614 148.675 972.759 149.609C972.786 150.312 974.199 150.191 974.172 149.487C974.148 148.851 974.362 148.742 975.245 149.01C976.903 149.583 973.472 151.124 971.707 150.622C971.045 150.446 970.707 150.157 971.026 149.944ZM977.798 152.97C977.026 152.765 976.261 152.727 975.939 152.874C975.618 153.02 975.284 152.865 975.271 152.53C975.256 152.129 974.815 152.011 973.732 152.221C972.649 152.43 972.318 152.342 972.631 151.961C973.258 151.233 976.194 150.986 976.221 151.689C976.232 151.99 976.9 152.333 977.667 152.405C978.434 152.509 979.096 152.685 979.105 152.919C979.006 153.191 978.57 153.208 977.798 152.97ZM980.646 147.628C981.305 147.737 981.74 147.687 981.732 147.486C981.724 147.285 980.735 147.088 979.642 147.03C977.783 146.934 977.783 146.934 979.856 146.921C981.273 146.9 982.373 147.126 982.496 147.49C982.85 148.181 981.33 148.373 980.216 147.779C979.771 147.561 979.986 147.486 980.646 147.628ZM982.302 150.952C980.974 150.466 980.859 150.303 981.842 150.332C983.262 150.378 984.698 150.859 984.717 151.328C984.733 151.763 984.185 151.684 982.302 150.952ZM1002.66 141.314C1002.88 141.305 1003.32 141.456 1003.65 141.644C1003.99 141.833 1003.78 142.008 1003.23 142.029C1002.69 142.05 1002.25 141.9 1002.24 141.699C1002.23 141.464 1002.44 141.322 1002.66 141.314ZM1003.46 147.856C1002.06 148.547 1001.52 148.635 1001.5 148.166C1001.5 147.965 1002.14 147.706 1003.12 147.534C1004.42 147.316 1004.53 147.345 1003.46 147.856ZM1011.47 146.306C1010.37 145.98 1009.82 146.001 1008.64 146.416C1007.46 146.864 1007.34 146.801 1007.97 146.072C1008.39 145.62 1009.35 145.114 1010 145.022C1010.76 144.892 1010.98 144.984 1010.56 145.268C1010.24 145.515 1010.57 145.67 1011.34 145.641C1012.1 145.612 1012.76 145.854 1012.77 146.156C1012.79 146.591 1012.57 146.633 1011.47 146.306ZM1017.54 142.518C1017 142.539 1016.44 142.258 1016.21 141.865C1015.87 141.476 1015.85 141.174 1016.07 141.166C1016.29 141.157 1016.85 141.438 1017.41 141.819C1017.97 142.2 1018.09 142.497 1017.54 142.518ZM1023.53 142.086C1023.19 141.764 1022.31 141.663 1021.12 141.843C1019.38 142.111 1019.38 142.111 1020.99 141.312C1022.81 140.437 1024.45 140.642 1025.37 141.814C1025.95 142.63 1024.32 142.86 1023.53 142.086ZM1032.15 142.29C1031.94 142.299 1031.49 142.148 1031.16 141.96C1030.82 141.771 1031.25 141.587 1032.12 141.553C1033 141.52 1033.33 141.675 1033.12 141.884C1032.69 142.135 1032.37 142.282 1032.15 142.29ZM1033.42 144.052C1032.77 144.077 1032.87 143.839 1033.62 143.475C1034.26 143.148 1035.02 142.951 1035.24 143.01C1035.9 143.253 1034.51 144.01 1033.42 144.052ZM1035.29 138.648C1034.19 138.489 1033.31 138.288 1033.3 138.188C1033.29 137.719 1034.56 136.899 1035.33 136.869C1035.87 136.848 1035.98 136.978 1035.67 137.191C1035.35 137.371 1035.58 137.865 1036.25 138.242C1037.26 138.874 1037.15 138.912 1035.29 138.648ZM1039.53 141.235C1039.2 141.113 1039.19 140.812 1039.39 140.536C1039.71 140.255 1039.93 140.347 1039.95 140.749C1040.07 141.08 1039.86 141.322 1039.53 141.235ZM1040.6 137.907C1039.97 138.535 1038.01 138.577 1037.44 137.995C1037.33 137.798 1037.53 137.421 1038.06 137.099C1039.23 136.316 1041.44 137.036 1040.6 137.907ZM1053.43 139.525C1054.75 139.776 1054.55 140.254 1053.02 140.312C1052.26 140.342 1051.93 140.12 1052.13 139.877C1052.34 139.601 1052.88 139.446 1053.43 139.525ZM1051.22 135.888C1051.76 135.867 1052.2 136.018 1052.21 136.219C1052.22 136.42 1052.12 136.591 1051.79 136.604C1051.57 136.612 1051.13 136.462 1050.8 136.273C1050.46 136.051 1050.67 135.909 1051.22 135.888ZM1048.18 139.124C1048.5 138.944 1049.04 138.789 1049.47 138.772C1050.02 138.751 1050.35 138.873 1050.36 139.04C1050.36 139.207 1049.71 139.367 1049.06 139.392C1048.41 139.417 1047.97 139.3 1048.18 139.124ZM1045.56 141.975C1043.37 141.724 1043.46 141.284 1045.74 140.962C1047.04 140.778 1047.59 140.857 1047.61 141.292C1047.62 141.761 1047.84 141.786 1048.37 141.397C1049.01 140.97 1049.56 140.949 1051.42 141.246C1052.74 141.463 1054.05 141.58 1054.38 141.534C1054.81 141.484 1055.14 141.572 1055.15 141.739C1055.27 142.07 1047.97 142.284 1045.56 141.975ZM1053.73 135.892C1053.27 135.473 1053.38 135.436 1054.37 135.699C1055.14 135.904 1055.91 135.942 1056.23 135.795C1056.55 135.682 1056.89 135.837 1056.9 136.139C1056.93 136.842 1054.52 136.666 1053.73 135.892ZM1057.12 141.865C1056.57 141.752 1056.13 141.534 1056.12 141.367C1056.11 141.199 1056.54 141.015 1057.09 140.994C1057.63 140.973 1058.08 141.191 1058.09 141.492C1058.1 141.794 1057.67 141.978 1057.12 141.865ZM1063.08 140.83C1062.44 141.291 1061.79 141.216 1059.9 140.45C1057.13 139.316 1057.66 138.792 1060.75 139.679C1062.29 140.156 1063.4 140.65 1063.08 140.83ZM1067.88 132.295C1068.2 132.115 1068.75 132.127 1069.3 132.307C1069.85 132.487 1069.97 132.818 1069.55 133.069C1069.01 133.425 1068.69 133.438 1068.13 133.057C1067.68 132.806 1067.56 132.475 1067.88 132.295ZM1066.54 140.06C1067.08 139.938 1067.52 139.988 1067.53 140.189C1067.54 140.39 1067.11 140.608 1066.56 140.629C1066.02 140.65 1065.58 140.6 1065.58 140.499C1065.57 140.399 1066 140.215 1066.54 140.06ZM1067.06 142.287C1066.19 142.32 1065.64 142.107 1065.63 141.805C1065.61 141.37 1065.83 141.362 1067.04 141.65C1067.81 141.855 1068.47 142.065 1068.48 142.132C1068.48 142.199 1067.94 142.253 1067.06 142.287ZM1071.21 136.526C1070.36 137.196 1069.93 137.28 1068.6 136.929C1067.17 136.581 1067.17 136.514 1068.58 136.359C1069.45 136.259 1070.09 135.966 1070.08 135.664C1070.05 134.827 1073.93 133.537 1075.36 133.918C1076.13 134.123 1077.11 134.119 1077.65 133.964C1078.41 133.767 1078.63 133.893 1078.43 134.336C1078.23 134.713 1077.15 135.09 1075.96 135.203C1074.76 135.316 1074.11 135.542 1074.45 135.697C1074.78 135.852 1074.46 135.932 1073.58 135.831C1072.81 135.76 1071.84 136.032 1071.21 136.526ZM1081.16 137.183C1080.41 137.647 1075.62 137.698 1074.29 137.246C1072.08 136.526 1073.7 136.195 1076.13 136.873C1077.34 137.196 1077.78 137.246 1077.12 137.003C1075.68 136.455 1075.54 135.655 1076.84 135.605C1077.93 135.563 1081.58 136.898 1081.16 137.183ZM1082.2 135.835C1081.55 135.927 1080.34 135.839 1079.68 135.596C1078.46 135.207 1078.46 135.073 1079.86 134.55C1081.25 133.959 1081.36 133.989 1080.85 134.713C1080.54 135.194 1080.77 135.487 1081.42 135.462C1082.07 135.437 1082.29 135.261 1081.95 135.073C1081.62 134.885 1081.83 134.709 1082.37 134.688C1083.79 134.633 1083.72 135.575 1082.2 135.835ZM1083.84 133.222C1083.52 133.436 1083.09 133.62 1082.77 133.633C1082.44 133.645 1082.33 133.482 1082.32 133.281C1082.31 133.114 1082.85 132.892 1083.39 132.871C1083.94 132.85 1084.16 133.009 1083.84 133.222Z" fill="#E65E44"/>
<path d="M465.111 183.152C464.991 182.888 464.321 182.478 463.658 182.269C462.664 181.938 462.556 181.976 463.116 182.357C463.675 182.704 463.46 182.78 462.365 182.688C461.161 182.566 460.947 182.675 461.406 183.261C461.863 183.814 461.651 183.956 460.446 183.835C459.46 183.739 458.919 183.86 458.931 184.162C458.941 184.429 458.408 184.752 457.759 184.877C456.892 185.045 456.893 185.078 457.766 185.078C458.421 185.087 458.975 185.3 458.986 185.601C458.998 185.903 459.443 186.12 459.879 186.104C460.423 186.083 460.523 185.844 460.295 185.585C460.067 185.325 460.486 184.873 461.239 184.609C462.422 184.161 462.969 184.207 464.734 184.709C466.83 185.299 466.83 185.299 466.035 184.491C465.689 184.002 465.23 183.416 465.111 183.152Z" fill="#E65E44"/>
<path d="M389.78 187.429C389.131 187.555 388.596 187.844 388.606 188.112C388.617 188.38 389.172 188.627 389.828 188.668C390.484 188.71 391.019 188.421 391.002 187.986C390.985 187.551 390.431 187.337 389.78 187.429Z" fill="#E65E44"/>
<path d="M481.515 184.163C480.97 184.184 480.867 184.356 481.202 184.544C481.536 184.733 482.197 184.875 482.741 184.854C483.286 184.833 483.388 184.661 483.054 184.473C482.718 184.251 482.059 184.142 481.515 184.163Z" fill="#E65E44"/>
<path d="M416.371 186.673C415.826 186.694 415.614 186.87 415.949 187.058C416.284 187.247 416.726 187.397 416.944 187.389C417.161 187.381 417.373 187.205 417.365 187.004C417.357 186.803 416.915 186.652 416.371 186.673Z" fill="#E65E44"/>
<path d="M363.096 188.592C362.339 188.755 361.911 188.973 362.244 189.128C363.026 189.6 364.546 189.408 364.524 188.838C364.512 188.537 363.853 188.428 363.096 188.592Z" fill="#E65E44"/>
<path d="M288.916 191.584C288.48 191.601 287.833 191.793 287.514 192.007C287.195 192.22 287.528 192.375 288.399 192.341C289.271 192.308 289.809 192.12 289.801 191.919C289.792 191.684 289.46 191.563 288.916 191.584Z" fill="#E65E44"/>
<path d="M419.177 185.894C418.752 186.179 418.656 186.518 418.879 186.644C419.659 187.083 422.05 186.823 422.029 186.288C422.001 185.551 420.136 185.287 419.177 185.894Z" fill="#E65E44"/>
<path d="M357.199 188.45C356.881 188.697 355.91 188.969 355.153 189.132C354.394 189.262 355.379 189.358 357.449 189.279C361.045 189.174 361.153 189.136 359.496 188.596C358.281 188.207 357.625 188.165 357.199 188.45Z" fill="#E65E44"/>
<path d="M511.87 182.021C510.016 182.026 509.382 182.553 510.92 182.829C511.359 182.913 512.226 182.745 512.761 182.49C513.402 182.13 513.179 182.004 511.87 182.021Z" fill="#E65E44"/>
<path d="M474.045 182.841C472.193 182.913 472.246 184.286 474.212 184.344C475.304 184.369 475.732 184.151 475.601 183.586C475.474 183.122 474.917 182.808 474.045 182.841Z" fill="#E65E44"/>
<path d="M451.298 184.254C450.753 184.275 450.326 184.527 450.338 184.828C450.35 185.129 450.577 185.355 450.794 185.347C451.012 185.339 451.439 185.087 451.754 184.773C452.069 184.459 451.843 184.233 451.298 184.254Z" fill="#E65E44"/>
<path d="M314.704 189.819C314.388 190.099 314.508 190.397 314.84 190.518C315.172 190.639 315.381 190.396 315.367 190.028C315.241 189.597 314.91 189.509 314.704 189.819Z" fill="#E65E44"/>
<path d="M230.273 192.938C229.724 192.825 229.29 192.909 229.298 193.109C229.306 193.31 229.751 193.528 230.3 193.641C230.85 193.754 231.283 193.67 231.276 193.469C231.268 193.268 230.823 193.051 230.273 192.938Z" fill="#E65E44"/>
<path d="M194.332 194.524C193.788 194.545 193.467 194.725 193.475 194.926C193.483 195.126 194.143 195.269 195.014 195.235C195.777 195.206 196.206 195.022 195.872 194.833C195.536 194.611 194.877 194.503 194.332 194.524Z" fill="#E65E44"/>
<path d="M455.116 184.241C455.139 184.844 455.687 184.924 456.432 184.425C456.751 184.212 456.524 183.986 455.974 183.873C455.535 183.789 455.104 183.94 455.116 184.241Z" fill="#E65E44"/>
<path d="M189.647 194.671C190.203 194.951 190.64 194.968 191.067 194.717C191.386 194.503 191.267 194.239 190.717 194.126C189.179 193.85 188.643 194.106 189.647 194.671Z" fill="#E65E44"/>
<path d="M259.529 190.57C258.985 190.591 258.554 190.741 258.562 190.942C258.57 191.143 259.014 191.361 259.564 191.474C260.114 191.587 260.543 191.403 260.532 191.101C260.52 190.8 260.074 190.549 259.529 190.57Z" fill="#E65E44"/>
<path d="M170.72 193.287C169.304 193.342 169.017 194.392 170.339 194.744C171.442 195.037 171.768 195.024 172.186 194.538C172.817 193.911 172.027 193.237 170.72 193.287Z" fill="#E65E44"/>
<path d="M80.2532 198.315C79.5957 198.24 79.3688 198.014 79.5802 197.838C79.9006 197.658 79.4584 197.507 78.5869 197.541C77.8243 197.57 77.0669 197.734 77.0734 197.901C77.085 198.203 79.3907 198.583 80.6966 198.499C81.2413 198.478 80.9106 198.39 80.2532 198.315Z" fill="#E65E44"/>
<path d="M75.3188 197.667C74.7741 197.688 74.3448 197.872 74.3526 198.073C74.3603 198.274 74.8025 198.425 75.3472 198.404C75.8919 198.383 76.3212 198.198 76.3134 197.997C76.1967 197.801 75.8635 197.646 75.3188 197.667Z" fill="#E65E44"/>
<path d="M666.929 174.337C666.606 174.45 666.944 174.739 667.607 174.948C668.492 175.249 668.708 175.207 668.144 174.726C667.695 174.408 667.143 174.228 666.929 174.337Z" fill="#E65E44"/>
<path d="M470.416 182.109C469.545 182.143 468.231 182.026 467.679 181.846C467.015 181.603 466.69 181.683 466.705 182.051C466.716 182.352 467.27 182.566 467.924 182.541C468.577 182.516 469.779 182.57 470.656 182.67C471.424 182.775 472.182 182.645 472.175 182.444C472.057 182.214 471.288 182.076 470.416 182.109Z" fill="#E65E44"/>
<path d="M413.988 184.283C413.225 184.313 412.796 184.497 413.13 184.685C413.465 184.874 414.125 185.016 414.67 184.995C415.214 184.974 415.535 184.794 415.527 184.593C415.41 184.396 414.75 184.254 413.988 184.283Z" fill="#E65E44"/>
<path d="M97.3071 196.384C97.0982 196.627 97.1111 196.961 97.4418 197.049C97.7738 197.171 97.9826 196.928 97.9684 196.56C97.8453 196.195 97.6236 196.103 97.3071 196.384Z" fill="#E65E44"/>
<path d="M720.511 171.904C719.971 172.059 719.763 172.301 720.097 172.49C720.879 172.963 721.42 172.841 721.395 172.205C721.493 171.899 721.052 171.782 720.511 171.904Z" fill="#E65E44"/>
<path d="M708.736 172.089C707.542 172.269 707.681 173.035 708.995 173.152C709.651 173.194 709.97 172.98 709.847 172.616C709.616 172.29 709.17 172.039 708.736 172.089Z" fill="#E65E44"/>
<path d="M690.55 172.957C689.581 173.296 689.587 173.464 690.577 173.66C691.237 173.803 692.549 173.886 693.421 173.853C694.946 173.794 694.943 173.727 693.394 173.15C692.175 172.66 691.519 172.618 690.55 172.957Z" fill="#E65E44"/>
<path d="M191.519 192.285C190.979 192.439 190.552 192.691 190.56 192.892C190.568 193.093 191.009 193.21 191.553 193.189C192.098 193.168 192.523 192.883 192.512 192.582C192.5 192.28 191.95 192.167 191.519 192.285Z" fill="#E65E44"/>
<path d="M91.3053 196.347C90.7606 196.368 90.6581 196.539 90.9927 196.728C91.3272 196.916 91.9873 197.058 92.532 197.037C93.0767 197.016 93.1792 196.845 92.8446 196.656C92.5088 196.435 91.85 196.326 91.3053 196.347Z" fill="#E65E44"/>
<path d="M135.629 194.304C135.085 194.325 134.764 194.505 134.772 194.706C134.78 194.907 135.44 195.049 136.311 195.015C137.074 194.986 137.503 194.802 137.169 194.613C136.833 194.391 136.174 194.283 135.629 194.304Z" fill="#E65E44"/>
<path d="M79.7634 196.926C81.3884 196.628 81.1344 195.699 79.5004 195.762C78.6289 195.796 78.0958 196.118 78.1113 196.52C78.1268 196.922 78.2474 197.219 78.355 197.181C78.4626 197.143 79.2226 197.047 79.7634 196.926Z" fill="#E65E44"/>
<path d="M13.8043 198.092C12.947 198.494 12.9586 198.795 13.6213 199.004C14.2852 199.247 14.8286 199.193 15.3604 198.837C17.385 197.585 16.0533 196.999 13.8043 198.092Z" fill="#E65E44"/>
<path d="M28.5183 197.726C27.7558 197.756 27.2176 197.944 27.5521 198.132C27.8867 198.321 28.3289 198.471 28.5467 198.463C28.7646 198.454 29.1939 198.27 29.513 198.057C29.7231 197.847 29.2809 197.697 28.5183 197.726Z" fill="#E65E44"/>
<path d="M826.943 165.019C825.63 164.902 825.405 164.743 826.146 164.145C826.888 163.58 826.774 163.45 825.796 163.555C823.296 163.785 823.202 164.191 825.426 165.279C826.649 165.869 827.872 166.459 827.983 166.522C828.205 166.614 828.634 166.43 829.167 166.108C829.699 165.752 830.025 165.706 830.035 165.973C830.044 166.208 830.487 166.392 831.141 166.367C831.795 166.342 832.006 166.166 831.779 165.94C831.328 165.555 829.787 165.212 826.943 165.019Z" fill="#E65E44"/>
<path d="M823.8 165.543C823.591 165.786 823.606 166.188 823.833 166.414C824.06 166.64 824.379 166.426 824.361 165.957C824.343 165.489 824.008 165.3 823.8 165.543Z" fill="#E65E44"/>
<path d="M835.802 162.733C835.151 162.825 835.16 163.06 835.607 163.344C836.166 163.692 836.603 163.708 837.027 163.39C837.878 162.821 837.21 162.478 835.802 162.733Z" fill="#E65E44"/>
<path d="M1049.27 144.85C1048.51 144.879 1047.75 145.076 1047.76 145.277C1047.77 145.478 1048.21 145.629 1048.65 145.612C1049.19 145.591 1049.84 145.398 1050.16 145.185C1050.58 144.967 1050.14 144.817 1049.27 144.85Z" fill="#E65E44"/>
</svg>
