<svg width="36" height="35" viewBox="0 0 36 35" fill="none"
    xmlns="http://www.w3.org/2000/svg">
    <g clipPath="url(#clip0_32_2)">
        <path fillRule="evenodd" clipRule="evenodd" d="M8.7435 8.75002C8.1255 10.449 6.4575 11.6667 4.5 11.6667C2.016 11.6667 0 9.70669 0 7.29169C0 4.87669 2.016 2.91669 4.5 2.91669C6.4575 2.91669 8.1255 4.1344 8.7435 5.83335H29.25C32.976 5.83335 36 8.77335 36 12.3959C36 16.0184 32.976 18.9584 29.25 18.9584H22.2435C21.6255 20.6573 19.9575 21.875 18 21.875C16.0425 21.875 14.3745 20.6573 13.7565 18.9584H6.75C4.68 18.9584 3 20.5917 3 22.6042C3 24.6167 4.68 26.25 6.75 26.25H27.2565C27.8745 24.5511 29.5425 23.3334 31.5 23.3334C33.984 23.3334 36 25.2934 36 27.7084C36 30.1234 33.984 32.0834 31.5 32.0834C29.5425 32.0834 27.8745 30.8656 27.2565 29.1667H6.75C3.024 29.1667 0 26.2267 0 22.6042C0 18.9817 3.024 16.0417 6.75 16.0417H13.7565C14.3745 14.3427 16.0425 13.125 18 13.125C19.9575 13.125 21.6255 14.3427 22.2435 16.0417H29.25C31.32 16.0417 33 14.4084 33 12.3959C33 10.3834 31.32 8.75002 29.25 8.75002H8.7435ZM18 16.0417C18.828 16.0417 19.5 16.695 19.5 17.5C19.5 18.305 18.828 18.9584 18 18.9584C17.172 18.9584 16.5 18.305 16.5 17.5C16.5 16.695 17.172 16.0417 18 16.0417Z" fill="#004335"/>
    </g>
    <defs>
        <clipPath id="clip0_32_2">
            <rect width="36" height="35" fill="white"/>
        </clipPath>
    </defs>
</svg>
