<svg width="35" height="35" viewBox="0 0 35 35" fill="none"
    xmlns="http://www.w3.org/2000/svg">
    <g clipPath="url(#clip0_32_6)">
        <path d="M21.649 13.701C20.8688 11.8898 20.1192 5.60583 20.1192 5.01375C20.1192 3.43146 21.4959 4.29333 20.2038 0.635833C20.0536 0.211458 18.7761 0 17.5 0C16.224 0 14.9465 0.211458 14.7963 0.634375C13.5377 4.20146 14.8809 3.51896 14.8809 5.01229C14.8809 5.60292 14.1313 11.8883 13.3511 13.6996C12.5709 15.5108 10.2084 16.1321 10.2084 19.9617V32.9335C10.2084 34.876 11.8927 35 17.5 35C23.1073 35 24.7917 34.876 24.7917 32.9335V19.9617C24.7917 16.1321 22.4277 15.5123 21.649 13.701ZM16.0417 20.5392L16.049 32.0833C15.3082 32.1781 13.4284 32.2846 13.125 31.8165V20.3481C13.125 16.3231 15.1186 17.5948 16.7767 12.7021C16.3625 15.2571 16.0417 16.5681 16.0417 20.5392Z" fill="#004335"/>
    </g>
    <defs>
        <clipPath id="clip0_32_6">
            <rect width="35" height="35" fill="white"/>
        </clipPath>
    </defs>
</svg>
