<svg width="35" height="35" viewBox="0 0 35 35" fill="none"
    xmlns="http://www.w3.org/2000/svg">
    <g clipPath="url(#clip0_32_4)">
        <path d="M35 14.3558L29.7748 24.2448L28.194 20.4167C22.2877 23.7388 20.7419 29.1098 20.4167 35H14.5833C14.859 27.494 16.5637 20.0579 25.8854 14.7656L24.3673 10.9375L35 14.3558ZM15.6888 20.1527C14.0875 18.1971 11.9583 16.3815 9.11458 14.7656L10.6327 10.9375L0 14.3558L5.22521 24.2448L6.80604 20.4167C9.74896 22.0719 11.6083 24.2375 12.775 26.721C13.3758 24.4854 14.3004 22.2702 15.6888 20.1527ZM17.5 0L10.2083 7.29167H14.5833V14.9727C15.6975 15.8783 16.6658 16.8219 17.516 17.796C18.3648 16.8248 19.3054 15.8769 20.4167 14.9727V7.29167H24.7917L17.5 0V0Z" fill="#E65E44"/>
    </g>
    <defs>
        <clipPath id="clip0_32_4">
            <rect width="35" height="35" fill="white"/>
        </clipPath>
    </defs>
</svg>
