<svg width="64" height="76" viewBox="0 0 64 76" fill="none"
    xmlns="http://www.w3.org/2000/svg">
    <g clipPath="url(#clip0_34_2)">
        <path d="M15.698 39.1705C15.8477 35.9908 16.3371 33.2305 17.4555 30.6263C18.0946 29.1243 19.0133 27.7393 19.902 26.3445C20.4912 25.4179 21.1802 24.5498 21.9192 23.7208C22.3386 23.2526 22.8779 22.8039 23.4471 22.5601C25.1646 21.8286 26.8822 22.9698 26.8623 24.8034C26.8523 26.0616 26.7424 27.3004 27.1818 28.5293C28.0306 30.8994 29.4286 32.9574 31.4159 34.4692C33.7326 36.2249 36.5187 36.7126 39.4446 36.5468C46.3249 36.1664 50.8985 32.3039 54.4834 27.0175C55.7716 25.1155 56.9799 23.0965 57.2795 20.7849C57.5791 18.4636 57.609 16.113 57.7688 13.7819C57.8187 13.1089 57.7988 12.4164 57.9985 11.7921C58.4179 10.4461 59.8758 9.44152 61.174 9.43177C62.3523 9.42201 63.3909 10.5339 63.8403 11.8311C64.04 12.4066 64.03 13.1186 63.9002 13.7233C63.3909 16.1715 62.4722 18.4733 60.9643 20.5216C59.4065 22.6381 58.7374 25.1155 58.0983 27.5637C57.1397 31.2798 56.4007 35.0545 56.5006 38.9071C56.5705 41.8137 56.0113 44.5935 55.3522 47.383C54.7131 50.0945 53.2751 52.3671 51.258 54.2885C50.2494 55.2542 49.2408 56.2393 48.1224 57.0781C45.7557 58.863 43.0095 59.7115 40.0337 59.7603C38.2562 59.7896 36.5187 59.5457 34.8011 58.9508C33.1634 58.3851 31.3959 58.2192 29.7282 57.7316C27.1219 56.9708 24.6454 55.9076 22.6182 54.0837C21.8293 53.3717 21.0904 52.5622 20.4712 51.7038C18.9234 49.5385 17.6153 47.2367 16.6666 44.7495C15.9376 42.8281 15.3484 40.8969 15.678 39.1802L15.698 39.1705Z" fill="#F59F00"/>
        <path d="M57.6989 5.28646C57.4792 6.19354 57.2495 7.46151 56.8601 8.68071C56.6803 9.23666 56.2309 9.71459 55.8515 10.1925C55.7416 10.3291 55.4121 10.4559 55.2823 10.3973C55.1325 10.3291 54.9927 10.0462 54.9927 9.85114C55.0127 7.62732 54.3336 5.55956 53.6546 3.48204C53.5947 3.29673 53.5547 3.11141 53.5347 2.91634C53.4549 2.10679 53.7944 1.41428 54.4035 1.12167C54.9927 0.838821 55.9713 1.03389 56.5205 1.50207C57.609 2.42866 57.639 3.68687 57.6989 5.29621V5.28646Z" fill="#F59F00"/>
        <path d="M59.9557 1.13143C59.9757 0.507201 60.425 -0.00973986 60.9343 1.37311e-05C61.5335 0.0195209 62.0328 0.536461 62.0328 1.15094C62.0328 1.78492 61.5435 2.33112 60.9743 2.33112C60.4051 2.33112 59.9357 1.77517 59.9557 1.13143Z" fill="#F59F00"/>
        <path d="M25.8337 59.5847C24.9849 59.0482 24.3258 58.6191 23.6168 58.1606C22.9577 58.8532 23.2573 59.5457 23.5669 60.3064C22.4584 61.077 21.36 61.8378 20.2016 62.6376C18.494 60.0333 18.8435 57.4681 20.0918 54.9322C19.9719 54.7469 19.8821 54.6006 19.7922 54.4738C16.9761 50.7674 15.4782 46.5929 15.1787 42.0087C15.1387 41.3455 14.8891 40.9846 14.2899 40.6529C12.6422 39.7361 11.0045 38.7998 9.45672 37.7366C8.45812 37.0539 7.57936 36.1858 6.73055 35.3177C4.6335 33.1719 3.74475 30.4995 3.53504 27.6124C3.46514 26.6663 3.22548 26.0421 2.31676 25.6129C1.74756 25.3398 1.18834 24.9497 0.978638 24.2279C1.48792 24.3449 1.9273 24.501 2.36669 24.54C3.40523 24.6278 4.03434 24.2084 4.26402 23.2233C4.38385 22.7356 4.58357 22.4332 5.06289 22.2187C5.50228 22.0236 5.88174 21.6822 6.29117 21.4091C6.75052 21.5944 7.1899 21.8285 7.65924 21.9456C8.52802 22.1699 9.10721 21.8285 9.28695 20.9799C9.38681 20.502 9.57655 19.9656 8.9674 19.4584C8.84757 19.712 8.73773 19.8875 8.69778 20.0729C8.64785 20.3265 8.69778 20.5996 8.63787 20.8434C8.52802 21.2726 8.23843 21.4481 7.81902 21.3311C7.26979 21.175 6.76051 20.9214 6.47091 20.3947C5.90172 19.3316 5.63209 18.2197 5.72197 17.0102C5.7719 16.308 6.17134 15.8886 6.81044 15.635C7.43955 15.3814 8.02872 15.4887 8.45812 15.9471C8.85756 16.3665 9.20707 16.8639 9.43674 17.3906C9.68639 17.9466 9.75629 18.5806 9.92606 19.1755C10.0259 19.5169 10.0958 19.8778 10.2656 20.1802C10.6351 20.8141 11.0145 20.8824 11.6536 20.5215C11.9133 20.3752 12.1729 20.2192 12.4126 20.0436C13.4811 19.2633 15.4283 19.5462 16.4269 20.8336C16.7664 21.2726 16.9362 21.7505 16.6266 22.2772C16.3271 22.7844 15.8777 22.9794 15.2785 22.9014C14.8791 22.8429 14.4896 22.7844 14.0902 22.7746C12.6722 22.7356 11.5138 23.155 10.665 24.3644C10.1258 25.1252 9.38682 25.7495 8.62788 26.5493C8.49806 29.1925 11.1843 33.211 15.4583 35.386C15.5382 35.1422 15.638 34.9178 15.6979 34.6838C16.4469 31.7772 17.4055 28.9389 19.0333 26.3737C19.6424 25.4081 20.2915 24.4522 21.0205 23.5744C22.4185 21.9163 23.8465 20.2972 25.3444 18.7171C27.062 16.9029 28.7696 15.0693 30.1376 12.9918C30.8466 11.9091 31.3659 10.6899 31.8452 9.49022C32.6142 7.52974 33.433 7.03231 35.4901 7.57851C41.3818 9.14884 47.0638 11.2556 52.4263 14.1232C54.5833 15.2839 56.7003 16.5031 58.8173 17.7222C60.0755 18.4538 61.2439 19.3121 62.2824 20.3362C63.0713 21.1263 63.1912 21.8968 62.7418 22.9697C61.2539 26.52 60.0356 30.1483 59.7061 34.0303C59.4464 37.0734 58.9971 40.097 58.6276 43.1304C58.3679 45.3249 57.5191 47.3342 56.5205 49.2946C56.4307 49.4702 56.3508 49.636 56.211 49.9091C56.3807 50.0749 56.5705 50.2505 56.7502 50.4358C58.6276 52.25 59.3965 54.4835 59.5363 57.0195C59.6162 58.502 59.3765 59.8578 58.5976 61.1257C57.9685 62.1401 57.0698 62.8424 55.9114 63.1838C54.8529 63.4959 53.7844 63.6032 52.666 63.5544C49.4804 63.4276 46.6444 62.3157 43.9682 60.7258C43.4988 60.443 43.1094 60.365 42.5801 60.5698C40.2035 61.4964 37.687 61.8085 35.1506 61.8475C33.9922 61.867 32.8338 61.6817 31.6755 61.5354C31.1762 61.4769 30.7867 61.5744 30.3773 61.867C27.042 64.2371 23.6767 66.5585 20.3514 68.9579C19.0732 69.8845 17.8449 70.8988 16.6965 71.9815C15.7479 72.8788 14.8991 73.9029 14.1202 74.9466C13.2314 76.117 11.8234 76.4389 10.5052 75.2197C8.6878 73.5421 6.99018 71.7572 5.63209 69.6894C5.09285 68.8603 4.6335 67.9923 4.57358 66.9877C4.55361 66.5097 4.55361 66.0025 4.66346 65.5441C5.00298 64.0811 6.19131 63.174 7.57936 63.2423C9.04729 63.3203 10.1657 64.3347 10.3954 65.8172C10.4453 66.1391 10.3954 66.4805 10.4653 66.7828C10.6051 67.3485 10.7149 67.9435 11.0045 68.4312C11.5737 69.4065 12.6223 69.4943 13.521 68.8116C16.7365 66.3829 19.9619 63.9933 23.1874 61.5744C24.0262 60.9502 24.8451 60.2967 25.7838 59.5749L25.8337 59.5847ZM53.1353 47.3147C53.2252 47.1586 53.335 46.9928 53.4149 46.827C54.763 44.0569 55.3322 41.0821 55.5719 38.0585C55.9014 33.8352 56.5006 29.6607 57.5291 25.5446C57.9485 23.8865 57.629 22.4527 56.211 21.3506C56.0013 21.1848 55.8015 21.019 55.5819 20.8727C51.1481 17.8003 46.4846 15.1083 41.4917 13.0015C40.0337 12.387 38.4959 11.9091 36.9481 11.5482C35.4102 11.1873 35.2205 11.3824 34.4016 12.7284C33.7925 13.733 33.1933 14.7572 32.4244 15.635C31.2161 17.0102 29.9479 18.3757 28.5499 19.5559C25.634 22.0236 23.3971 24.9497 21.6596 28.2951C20.2216 31.0554 19.4726 34.001 18.9134 37.0051C18.6138 38.5949 18.9334 40.175 19.193 41.7453C19.6923 44.7592 20.7908 47.4122 23.0676 49.675C26.6026 53.1668 30.8367 55.2638 35.6798 56.0831C40.1935 56.8439 44.4775 55.8881 48.352 53.4399C49.0211 53.0108 49.5903 52.4841 50.1096 51.7623C49.051 51.2161 48.0624 50.6992 47.0738 50.192C46.2749 49.7921 45.4461 49.4507 44.6772 49.0118C43.7884 48.5046 43.389 47.6853 43.6087 46.6904C43.8384 45.6175 44.3676 44.7592 45.6059 44.5154C46.5046 44.3301 47.3434 44.5056 48.1323 44.8763C49.78 45.6468 51.3977 46.4661 53.1353 47.3244V47.3147ZM53.2252 54.2592C52.3364 55.137 51.5375 55.9076 50.7586 56.6976C50.3892 57.078 50.4091 57.3218 50.7786 57.7022C51.3678 58.307 52.1367 58.502 52.9456 58.5313C53.9142 58.5605 54.2737 58.2289 54.2937 57.2633C54.3136 56.1904 53.9042 55.2443 53.2152 54.2495L53.2252 54.2592Z" fill="white"/>
        <path d="M24.5355 67.1632C25.6939 66.3829 26.6925 65.7002 27.721 65.0467C27.8708 64.9491 28.1704 64.9784 28.3601 65.0467C30.7268 65.9928 33.0835 65.9342 35.4601 65.0662C36.4088 64.7151 37.2576 64.2274 38.0365 63.6129C38.5857 63.1837 39.1649 62.8131 39.9039 62.7643C41.4317 62.657 42.2905 63.5836 42.9796 64.7053C43.2292 65.1149 43.389 65.6026 43.4689 66.0806C43.8184 68.1386 43.9682 70.2063 43.6686 72.2936C43.4789 73.6396 42.9496 74.7905 41.6115 75.4342C40.3632 76.039 39.1549 75.8341 38.3461 74.7125C37.8767 74.059 37.5372 73.2982 37.2576 72.5472C36.9281 71.6791 37.1078 70.811 37.6471 70.0405C37.9466 69.6114 38.2862 69.2115 38.6157 68.8018C38.8354 68.5287 39.1649 68.3044 38.9253 67.7874C38.6556 67.9045 38.396 68.002 38.1364 68.1191C37.5372 68.4019 36.9381 68.6848 36.3589 68.9969C33.6127 70.4599 30.8267 70.4404 28.0206 69.1724C27.1119 68.7628 26.2331 68.3044 25.3643 67.8362C25.1147 67.6997 24.915 67.4753 24.5255 67.1534L24.5355 67.1632Z" fill="white"/>
        <path d="M4.04434 16.2592C4.83323 16.3372 5.09286 16.6006 5.08288 17.3614C5.07289 18.3465 5.23267 19.2926 5.63211 20.2094C5.91171 20.8434 5.84181 20.9799 5.24265 21.4286C4.54364 21.9455 4.30397 21.9846 3.75475 21.5652C2.49652 20.6093 2.05713 19.2633 2.09708 17.7808C2.12703 16.7956 3.04574 16.1617 4.04434 16.2592Z" fill="white"/>
        <path d="M2.23682 23.9256C2.13697 23.8963 1.94723 23.8378 1.76748 23.7695C0.738931 23.3403 -0.46937 21.2433 0.199689 19.8583C0.319521 19.6047 0.499268 19.3511 0.718959 19.1756C1.06847 18.9025 1.40799 19.0097 1.60771 19.4096C1.70757 19.6145 1.7575 19.8388 1.83739 20.0534C2.10701 20.8434 2.56636 21.4872 3.22543 22.0139C3.81461 22.482 3.85455 22.6381 3.6049 23.2233C3.37522 23.7597 2.97579 23.9841 2.24681 23.9256H2.23682Z" fill="white"/>
        <path d="M23.1375 33.4938C23.3971 32.8013 23.6667 31.9332 24.0562 31.1139C25.2545 28.539 26.9321 26.3347 29.139 24.4717C30.8366 23.0282 32.3844 21.3994 33.7326 19.6242C33.9522 19.3413 34.1719 19.039 34.4515 18.8244C34.9908 18.4148 35.57 18.6293 35.7497 19.2731C35.8995 19.8193 35.7198 20.3265 35.4302 20.7556C34.7911 21.7017 34.132 22.6381 33.393 23.5061C32.694 24.3352 31.9051 25.0765 31.1462 25.847C28.8494 28.1879 26.982 30.8018 25.8436 33.8742C25.6739 34.3326 25.4642 34.7813 25.2045 35.1812C24.9649 35.5421 24.5954 35.7957 24.1061 35.6981C23.5868 35.5908 23.3172 35.2104 23.2273 34.7423C23.1574 34.4009 23.1774 34.0303 23.1474 33.4841L23.1375 33.4938Z" fill="white"/>
    </g>
    <defs>
        <clipPath id="clip0_34_2">
            <rect width="64" height="76" fill="white"/>
        </clipPath>
    </defs>
</svg>
