<?xml version="1.0" encoding="utf-8"?>
<!-- Generator: Adobe Illustrator 26.5.0, SVG Export Plug-In . SVG Version: 6.00 Build 0)  -->
<svg version="1.1" id="Layer_1"
    xmlns="http://www.w3.org/2000/svg"
    xmlns:xlink="http://www.w3.org/1999/xlink" x="0px" y="0px" viewBox="0 0 800 409" style="enable-background:new 0 0 800 409;" xml:space="preserve">
    <style type="text/css">
	.st0{fill:#F4A11E;}
	.st1{fill:none;stroke:#004335;stroke-width:14.738;}
	.st2{fill:#FFFFFF;}
    </style>
    <g>
        <path class="st0" d="M421,376.05c209.55-25.73,370.01-123.17,358.41-217.63C767.81,63.95,588.54,8.22,379,33.96
		C169.45,59.68,8.99,157.12,20.59,251.59C32.19,346.06,211.46,401.77,421,376.05"/>
        <path class="st1" d="M421,376.05c209.55-25.73,370.01-123.17,358.41-217.63C767.81,63.95,588.54,8.22,379,33.96
		C169.45,59.68,8.99,157.12,20.59,251.59C32.19,346.06,211.46,401.77,421,376.05z"/>
    </g>
    <g>
        <path class="st2" d="M275.29,260.05c0.3,2.48-1.37,4.61-4.58,5.01c-4.98,0.61-10.16,0.81-20.25,2.05
		c-10.09,1.24-16.34,2.44-21.46,3.07c-4.68,0.57-7.82-0.82-8.22-4.04c-0.83-6.88,9.74-5.35,8.84-12.81
		c-0.2-1.62-1.09-4.03-2.46-6.69l-1.99-4.07c-1.58-3.22-2.82-4.85-6.92-4.35l-26.04,3.2c-4.1,0.5-4.91,2.38-5.67,5.89l-0.98,4.13
		c-0.88,3.68-1.32,6.1-1.17,7.43c0.92,7.46,11.26,3.37,12.1,10.25c0.39,3.22-2.17,5.3-6.99,5.9c-4.98,0.6-9.72,0.75-13.96,1.27
		c-4.39,0.54-7.56,1.37-12.52,1.97c-3.22,0.4-5.37-1.27-5.67-3.75c-0.86-7.02,8.2-5.76,10.78-16.33l14.42-59.1
		c1.81-7.05,3.71-15.75,4.76-21.68c1.74-8.83,4.78-10.69,17.21-12.22c12.44-1.53,15.14-0.06,18.94,7.93
		c2.59,5.33,6.53,13.31,10,19.71l28.3,53.85C266.61,255.91,274.47,253.32,275.29,260.05z M213.84,220.5L199.62,193l-7.28,30.15
		c-0.5,1.99-0.37,4.21,3.14,3.78l16.38-2.01C215.51,224.46,214.81,222.32,213.84,220.5z"/>
        <path class="st2" d="M372.34,241.44c0.59,4.83-3.48,6.66-17.75,11.54c-9.4,3.23-12.56,4.07-14.46,4.3
		c-3.81,0.47-6.07-2.22-6.56-6.17l-0.88-7.17l-0.13,0.01c-3.73,8.48-11.82,16.31-23.96,17.8c-14.34,1.76-26.89-6.05-29.19-24.78
		l-2.55-20.77c-1.17-9.51-11.27-5.9-12.06-12.34c-0.53-4.38,3.5-6.66,16.57-12.72c10.81-5.04,13.1-5.77,14.71-5.97
		c4.68-0.58,6.2,3.4,6.76,7.94l3.86,31.46c1.44,11.7,6.66,15.52,13.24,14.7c5.57-0.68,11.56-5.12,9.82-19.32l-1.25-10.09
		c-1.17-9.51-12.84-5.41-13.66-12.15c-0.55-4.38,3.8-6.55,18.15-13.07c10.42-4.68,13.41-5.66,14.88-5.84
		c4.97-0.61,6.15,4.15,6.61,7.95l5.05,41.11C360.74,237.67,371.62,235.59,372.34,241.44z"/>
        <path class="st2" d="M463.44,169.65c0.24,1.91,0.2,3.99,0.17,5.04c-0.07,2.98-1.21,4.61-4.15,4.97l-13.74,1.68l5.22,42.57
		c1.24,10.1,11.21,5.46,12.09,12.63c0.29,2.34-1.15,5.04-5.54,5.58c-4.1,0.5-8.39,0.59-18.49,1.84c-8.92,1.09-12.38,1.96-16.05,2.4
		c-4.39,0.54-6.42-1.58-6.74-4.07c-0.76-6.29,7.58-4.79,6.35-14.89l-5.22-42.57l-9.37,1.15c-2.92,0.36-4.42-0.94-5.22-3.82
		c-0.27-1-0.82-3.02-1.05-4.92c-0.3-2.48,1.15-4,3.93-4.34l7.6-0.94c-2.4-3.86-5.14-7.98-6.03-15.29
		c-1.64-13.31,8.53-24.82,28.44-27.26c15.8-1.94,29.61,4.09,30.3,9.65c0.39,3.22-1.32,7.43-5.67,14.35
		c-1.61,2.58-3.47,4.44-5.66,4.71c-2.49,0.31-4.45-1.08-5.35-3.64c-3.15-8.82-4.4-15.36-10.84-14.57
		c-4.98,0.61-6.76,5.43-6.12,10.71c1.11,9.07,5.33,13.15,8.74,17.93l17.56-2.16C461.37,166.06,463.14,167.17,463.44,169.65z"/>
        <path class="st2" d="M572.6,216.85c0.59,4.83-3.48,6.67-17.75,11.54c-9.4,3.23-12.56,4.07-14.46,4.3
		c-3.81,0.47-6.07-2.22-6.56-6.17l-0.88-7.17l-0.13,0.01c-3.73,8.48-11.82,16.31-23.96,17.8c-14.34,1.76-26.89-6.06-29.19-24.79
		l-2.55-20.77c-1.17-9.51-11.27-5.9-12.06-12.34c-0.53-4.38,3.5-6.66,16.57-12.72c10.81-5.05,13.1-5.78,14.71-5.97
		c4.68-0.58,6.2,3.4,6.76,7.94l3.86,31.46c1.44,11.7,6.66,15.52,13.24,14.7c5.57-0.68,11.56-5.12,9.82-19.32l-1.25-10.09
		c-1.17-9.51-12.84-5.41-13.66-12.15c-0.55-4.38,3.8-6.55,18.15-13.07c10.42-4.68,13.41-5.66,14.88-5.84
		c4.97-0.61,6.15,4.15,6.61,7.95l5.05,41.11C560.99,213.08,571.88,211,572.6,216.85z M486.7,147.5c-0.19-1.46,0.24-2.86,1.45-5.08
		c2.79-5.1,5.64-9.76,9.2-14.65c2.94-3.91,4.84-5.34,11.41-6.15c6.59-0.81,8.78,0.12,12.58,3.21c4.63,3.89,8.52,7.71,12.46,11.99
		c1.71,1.86,2.46,3.12,2.63,4.58c0.26,2.04-1.5,4.63-5.17,5.08c-1.76,0.22-4,0.06-7.4-2.2l-13.4-8.76l-10.88,11.74
		c-2.75,3.01-4.89,3.71-6.65,3.92C489.29,151.63,486.94,149.55,486.7,147.5z"/>
        <path class="st2" d="M637.82,203.94c0.35,2.78-1.31,6.25-3.11,8.56c-4.49,5.74-11.28,10.89-23.43,12.38
		c-13.17,1.61-24.83-4.98-25.99-14.49c-0.37-3.07-1.17-14.41-2.42-24.51l-2.58-21.06l-6.29,0.78c-3.67,0.45-6.56-1.42-6.97-4.64
		c-0.43-3.51,1.55-5.53,4.94-8.18c9.1-7.05,13.83-11.95,18.74-20.42c4.03-7.04,5.43-10.18,8.65-10.57c2.78-0.34,4.61,1.22,5.17,5.76
		l2.53,20.62l17.54-2.15c2.79-0.35,4.56,0.78,4.95,3.99c0.14,1.17,0.1,3.26,0.09,4.3c-0.09,2.99-1.22,4.61-4.15,4.97l-16.83,2.07
		l3.94,32.19c1.42,11.56,5.27,13.76,9.51,13.24c1.74-0.22,3.45-0.87,6.48-4.07c0.91-1,2.22-2.49,4.26-2.74
		C635.81,199.59,637.53,201.6,637.82,203.94z"/>
    </g>
</svg>
